<?xml version="1.0" encoding="UTF-8" standalone="no"?>
<!-- Created with Inkscape (http://www.inkscape.org/) -->

<svg
   xmlns:dc="http://purl.org/dc/elements/1.1/"
   xmlns:cc="http://creativecommons.org/ns#"
   xmlns:rdf="http://www.w3.org/1999/02/22-rdf-syntax-ns#"
   xmlns:svg="http://www.w3.org/2000/svg"
   xmlns="http://www.w3.org/2000/svg"
   xmlns:sodipodi="http://sodipodi.sourceforge.net/DTD/sodipodi-0.dtd"
   xmlns:inkscape="http://www.inkscape.org/namespaces/inkscape"
   id="svg2992"
   version="1.1"
   inkscape:version="0.48.4 r9939"
   width="1778.1626"
   height="727.86786"
   xml:space="preserve"
   sodipodi:docname="spsse-long-left.svg"><metadata
     id="metadata2998"><rdf:RDF><cc:Work
         rdf:about=""><dc:format>image/svg+xml</dc:format><dc:type
           rdf:resource="http://purl.org/dc/dcmitype/StillImage" /><dc:title /></cc:Work></rdf:RDF></metadata><defs
     id="defs2996"><clipPath
       clipPathUnits="userSpaceOnUse"
       id="clipPath3006"><path
         d="M 0,600 800,600 800,0 0,0 0,600 z"
         id="path3008"
         inkscape:connector-curvature="0" /></clipPath></defs><sodipodi:namedview
     pagecolor="#ffffff"
     bordercolor="#666666"
     borderopacity="1"
     objecttolerance="10"
     gridtolerance="10"
     guidetolerance="10"
     inkscape:pageopacity="0"
     inkscape:pageshadow="2"
     inkscape:window-width="1402"
     inkscape:window-height="814"
     id="namedview2994"
     showgrid="false"
     fit-margin-top="0"
     fit-margin-left="0"
     fit-margin-right="0"
     fit-margin-bottom="0"
     inkscape:zoom="0.31466667"
     inkscape:cx="-46.388371"
     inkscape:cy="-10.759935"
     inkscape:window-x="0"
     inkscape:window-y="0"
     inkscape:window-maximized="0"
     inkscape:current-layer="text2989" /><g
     id="g3000"
     inkscape:groupmode="layer"
     inkscape:label="logospsse"
     transform="matrix(1.25,0,0,-1.25,-1111.8966,855.29033)"><g
   id="g3043"
   transform="matrix(1.0176393,0,0,1.013253,823.29259,-11.610523)"><g
     transform="translate(1148.9243,580.98126)"
     id="g3018"><path
       inkscape:connector-curvature="0"
       id="path3020"
       style="fill:#2d4693;fill-opacity:1;fill-rule:evenodd;stroke:none"
       d="m 0,0 c -12.986,-0.484 -24.128,-14.776 -33.215,-50.951 -11.565,-46.043 -18.598,-75.269 -29.344,-118.062 -6.3,-25.089 -32.077,-34.346 -56.249,-34.381 -49.113,-0.071 -138.636,0.99 -140.049,1.005 9.257,-150.582 134.531,-269.86 287.712,-269.86 153.647,0 279.213,119.998 287.791,271.228 -3.352,-0.002 -70.829,-0.038 -105.166,0.297 -17.736,0.174 -30.199,-16.71 -39.176,-51.232 -9.311,-35.798 -8.283,-40.615 -17.938,-77.102 -9.655,-36.485 -17.979,-60.286 -26.181,-60.609 -8.581,-0.339 -16.933,25.457 -27.104,65.679 C 88.879,-275.734 56.502,-133.569 38.082,-56.6 28.082,-21.492 16.099,-0.45 1.274,0 0.851,0.013 0.418,0.016 0,0 m 28.855,103.251 c -159.202,0 -288.262,-128.831 -288.262,-287.75 0,-1.378 0.012,-2.757 0.031,-4.131 0.621,-0.007 98.014,-1.145 144.785,-1.366 46.225,-0.218 41.524,36.498 55.037,94.912 13.655,59.022 34.615,135.008 34.615,135.008 0,0 11.105,50.585 23.177,50.401 12.879,-0.195 15.059,-8.887 27.865,-50.401 18.87,-61.172 50.539,-206.781 70.331,-291.88 5.193,-22.332 17.816,-53.922 30.351,-53.699 15.174,0.274 28.196,54.636 42.152,86.415 11.033,25.127 22.533,30.423 42.733,30.61 43.701,0.436 104.154,-0.545 105.401,-0.564 0.026,1.561 0.047,3.128 0.047,4.695 0,158.919 -129.059,287.75 -288.263,287.75" /></g><g
     transform="translate(1006.749,503.87916)"
     id="g3022"><path
       inkscape:connector-curvature="0"
       id="path3024"
       style="fill:#baadaa;fill-opacity:1;fill-rule:evenodd;stroke:none"
       d="m 0,0 c -25.171,-19.275 -35.167,-27.184 -52.408,-56.441 43.074,-0.653 40.829,-28.012 39.309,-37.178 l -3.48,-18.798 c 9.559,-0.067 18.897,-0.08 27.622,-0.031 0.179,25.307 20.813,44.985 46.208,44.985 25.505,0 46.192,-20.666 46.192,-46.126 0,-25.46 -20.687,-46.125 -46.192,-46.125 -21.063,0 -38.855,14.092 -44.413,33.34 -10.296,0.112 -21.075,0.212 -32.238,0.317 l -16.459,-74.948 c 0,0 41.031,-28.916 64.823,-31.67 3.104,23.406 11.433,41.626 30.353,48.188 51.378,16.523 118.62,41.308 118.62,41.308 0,0 8.38,36.789 -13.981,90.429 C 127.877,-76.148 99.689,-55.976 99.689,-55.976 83.732,-47.252 56.135,-31.568 0,0" /></g></g><g
   transform="scale(0.9809437,-1.0194265)"
   style="font-size:192.7203064px;font-style:normal;font-variant:normal;font-weight:normal;font-stretch:normal;text-align:end;line-height:100%;letter-spacing:0px;word-spacing:0px;writing-mode:lr-tb;text-anchor:end;fill:#2d4693;fill-opacity:1;stroke:none;font-family:Sans;-inkscape-font-specification:Sans"
   id="text2989"><path
     d="m 1081.5667,-537.40464 17.2206,-1.50563 c 0.8155,6.90083 2.7133,12.56261 5.6932,16.98536 2.9798,4.42281 7.6065,7.99867 13.88,10.7276 6.2734,2.72896 13.331,4.09344 21.1729,4.09342 6.9634,2e-5 13.1114,-1.0351 18.4439,-3.10535 5.3323,-2.07022 9.3003,-4.90896 11.9039,-8.51621 2.6033,-3.6072 3.9051,-7.54379 3.9052,-11.80976 -10e-5,-4.32864 -1.2548,-8.10839 -3.7641,-11.33926 -2.5095,-3.23077 -6.6499,-5.94404 -12.4214,-8.1398 -3.7014,-1.44283 -11.8883,-3.68559 -24.5606,-6.72827 -12.6724,-3.04256 -21.5493,-5.91266 -26.6307,-8.61031 -6.5872,-3.45032 -11.4962,-7.73194 -14.727,-12.84488 -3.2308,-5.11277 -4.8462,-10.83729 -4.8462,-17.17356 0,-6.96342 1.9761,-13.47212 5.9284,-19.52611 3.9523,-6.05375 9.7238,-10.64904 17.3147,-13.7859 7.5909,-3.13659 16.0286,-4.70495 25.3134,-4.70509 10.2256,1.4e-4 19.2437,1.64692 27.0542,4.94034 7.8104,3.2937 13.8172,8.13993 18.0205,14.53872 4.2031,6.39903 6.4615,13.64485 6.7753,21.73749 l -17.5029,1.31743 c -0.9411,-8.71999 -4.1249,-15.3071 -9.5513,-19.76136 -5.4266,-4.45403 -13.4409,-6.6811 -24.043,-6.68122 -11.0413,1.2e-4 -19.087,2.02331 -24.1371,6.06956 -5.0501,4.04649 -7.5752,8.92409 -7.5752,14.63281 0,4.95613 1.7879,9.03386 5.3638,12.23323 3.5131,3.19954 12.688,6.47742 27.5248,9.83363 14.8366,3.35637 25.0153,6.2892 30.536,8.79851 8.0299,3.7014 13.9583,8.3908 17.7852,14.0682 3.8267,5.67752 5.7401,12.21759 5.7402,19.62021 -10e-5,7.33996 -2.1017,14.25643 -6.3048,20.74943 -4.2033,6.49303 -10.2415,11.54315 -18.1146,15.15037 -7.8732,3.60723 -16.7345,5.41085 -26.5837,5.41085 -12.4842,0 -22.9452,-1.8193 -31.3829,-5.4579 -8.4379,-3.63859 -15.0563,-9.11217 -19.8555,-16.42075 -4.7992,-7.30854 -7.3243,-15.5738 -7.5752,-24.7958 z"
     style="line-height:100%;fill:#2d4693;font-family:Sans;-inkscape-font-specification:Sans"
     id="path2995" /><path
     d="m 1216.5086,-493.08273 0,-137.95311 52.0382,0 c 9.1592,1.3e-4 16.1541,0.43928 20.9847,1.31742 6.7752,1.12936 12.4527,3.27801 17.0324,6.44597 4.5795,3.16822 8.2652,7.60668 11.057,13.31539 2.7915,5.70895 4.1874,11.98239 4.1875,18.82034 -10e-5,11.73144 -3.7328,21.65916 -11.1981,29.78319 -7.4655,8.12418 -20.9534,12.18623 -40.4638,12.18618 l -35.3822,0 0,56.08462 z m 18.2557,-72.36422 35.6645,0 c 11.794,7e-5 20.1691,-2.19563 25.1252,-6.58712 4.9559,-4.39133 7.4339,-10.57067 7.434,-18.53804 -10e-5,-5.77147 -1.4586,-10.7118 -4.3757,-14.82102 -2.9172,-4.10899 -6.7597,-6.82225 -11.5275,-8.13979 -3.074,-0.81543 -8.7515,-1.22321 -17.0324,-1.22333 l -35.2881,0 z"
     style="line-height:100%;fill:#2d4693;font-family:Sans;-inkscape-font-specification:Sans"
     id="path2997" /><path
     d="m 1339.029,-537.40464 17.2206,-1.50563 c 0.8155,6.90083 2.7132,12.56261 5.6932,16.98536 2.9798,4.42281 7.6065,7.99867 13.88,10.7276 6.2734,2.72896 13.331,4.09344 21.1728,4.09342 6.9635,2e-5 13.1115,-1.0351 18.444,-3.10535 5.3323,-2.07022 9.3003,-4.90896 11.9038,-8.51621 2.6034,-3.6072 3.9052,-7.54379 3.9053,-11.80976 -1e-4,-4.32864 -1.2548,-8.10839 -3.7641,-11.33926 -2.5095,-3.23077 -6.6499,-5.94404 -12.4214,-8.1398 -3.7014,-1.44283 -11.8883,-3.68559 -24.5606,-6.72827 -12.6724,-3.04256 -21.5493,-5.91266 -26.6308,-8.61031 -6.5871,-3.45032 -11.4961,-7.73194 -14.7269,-12.84488 -3.2308,-5.11277 -4.8462,-10.83729 -4.8462,-17.17356 0,-6.96342 1.9761,-13.47212 5.9284,-19.52611 3.9522,-6.05375 9.7238,-10.64904 17.3147,-13.7859 7.5908,-3.13659 16.0286,-4.70495 25.3134,-4.70509 10.2256,1.4e-4 19.2437,1.64692 27.0542,4.94034 7.8104,3.2937 13.8172,8.13993 18.0205,14.53872 4.2031,6.39903 6.4615,13.64485 6.7753,21.73749 l -17.5029,1.31743 c -0.9411,-8.71999 -4.1249,-15.3071 -9.5513,-19.76136 -5.4266,-4.45403 -13.441,-6.6811 -24.043,-6.68122 -11.0413,1.2e-4 -19.087,2.02331 -24.1371,6.06956 -5.0502,4.04649 -7.5752,8.92409 -7.5752,14.63281 0,4.95613 1.7879,9.03386 5.3638,12.23323 3.5131,3.19954 12.688,6.47742 27.5248,9.83363 14.8366,3.35637 25.0152,6.2892 30.536,8.79851 8.0299,3.7014 13.9583,8.3908 17.7852,14.0682 3.8267,5.67752 5.7401,12.21759 5.7402,19.62021 -10e-5,7.33996 -2.1017,14.25643 -6.3048,20.74943 -4.2033,6.49303 -10.2415,11.54315 -18.1146,15.15037 -7.8733,3.60723 -16.7345,5.41085 -26.5837,5.41085 -12.4843,0 -22.9452,-1.8193 -31.383,-5.4579 -8.4378,-3.63859 -15.0563,-9.11217 -19.8554,-16.42075 -4.7992,-7.30854 -7.3243,-15.5738 -7.5752,-24.7958 z m 52.9793,-111.88694 10.3511,-15.99729 19.1968,0 -21.1729,26.34848 -18.0675,0 -20.326,-26.34848 19.385,0 z"
     style="line-height:100%;fill:#2d4693;font-family:Sans;-inkscape-font-specification:Sans"
     id="path2999" /><path
     d="m 1467.7601,-537.40464 17.2206,-1.50563 c 0.8156,6.90083 2.7133,12.56261 5.6932,16.98536 2.9799,4.42281 7.6065,7.99867 13.88,10.7276 6.2734,2.72896 13.331,4.09344 21.1729,4.09342 6.9634,2e-5 13.1114,-1.0351 18.4439,-3.10535 5.3324,-2.07022 9.3003,-4.90896 11.9039,-8.51621 2.6034,-3.6072 3.9051,-7.54379 3.9052,-11.80976 -10e-5,-4.32864 -1.2548,-8.10839 -3.7641,-11.33926 -2.5094,-3.23077 -6.6499,-5.94404 -12.4214,-8.1398 -3.7014,-1.44283 -11.8882,-3.68559 -24.5605,-6.72827 -12.6724,-3.04256 -21.5494,-5.91266 -26.6308,-8.61031 -6.5872,-3.45032 -11.4961,-7.73194 -14.7269,-12.84488 -3.2309,-5.11277 -4.8463,-10.83729 -4.8463,-17.17356 0,-6.96342 1.9761,-13.47212 5.9284,-19.52611 3.9523,-6.05375 9.7238,-10.64904 17.3147,-13.7859 7.5909,-3.13659 16.0287,-4.70495 25.3134,-4.70509 10.2257,1.4e-4 19.2437,1.64692 27.0543,4.94034 7.8103,3.2937 13.8171,8.13993 18.0204,14.53872 4.2031,6.39903 6.4616,13.64485 6.7754,21.73749 l -17.503,1.31743 c -0.9411,-8.71999 -4.1248,-15.3071 -9.5513,-19.76136 -5.4266,-4.45403 -13.4409,-6.6811 -24.043,-6.68122 -11.0413,1.2e-4 -19.087,2.02331 -24.1371,6.06956 -5.0501,4.04649 -7.5752,8.92409 -7.5752,14.63281 0,4.95613 1.7879,9.03386 5.3638,12.23323 3.5131,3.19954 12.688,6.47742 27.5248,9.83363 14.8366,3.35637 25.0153,6.2892 30.536,8.79851 8.0299,3.7014 13.9583,8.3908 17.7852,14.0682 3.8267,5.67752 5.7401,12.21759 5.7402,19.62021 -10e-5,7.33996 -2.1017,14.25643 -6.3048,20.74943 -4.2033,6.49303 -10.2415,11.54315 -18.1146,15.15037 -7.8732,3.60723 -16.7345,5.41085 -26.5837,5.41085 -12.4842,0 -22.9452,-1.8193 -31.3829,-5.4579 -8.4378,-3.63859 -15.0563,-9.11217 -19.8555,-16.42075 -4.7992,-7.30854 -7.3242,-15.5738 -7.5752,-24.7958 z"
     style="line-height:100%;fill:#2d4693;font-family:Sans;-inkscape-font-specification:Sans"
     id="path3001" /><path
     d="m 1603.0784,-493.08273 0,-137.95311 99.7478,0 0,16.27959 -81.4921,0 0,42.25167 76.3165,0 0,16.1855 -76.3165,0 0,46.95675 84.6916,0 0,16.2796 z"
     style="line-height:100%;fill:#2d4693;font-family:Sans;-inkscape-font-specification:Sans"
     id="path3003" /><path
     d="m 1126.8296,-300.36243 52.9793,-137.95311 19.6673,0 56.461,137.95311 -20.7965,0 -16.0914,-41.78116 -57.6843,0 -15.1504,41.78116 z m 39.8051,-56.64923 46.7685,0 -14.3976,-38.20529 c -4.3914,-11.60577 -7.6536,-21.1414 -9.7865,-28.60692 -1.7567,8.84567 -4.2347,17.62849 -7.4341,26.34848 z"
     style="font-family:Sans;-inkscape-font-specification:Sans;fill:#999999"
     id="path3005" /><path
     d="m 1363.5895,-300.36243 -53.4497,-137.95311 19.7613,0 35.8528,100.21833 c 2.8857,8.03004 5.301,15.55817 7.2458,22.58441 2.1329,-7.52812 4.6109,-15.05625 7.434,-22.58441 l 37.2643,-100.21833 18.6322,0 -54.0144,137.95311 z"
     style="line-height:100%;fill:#2d4693;font-family:Sans;-inkscape-font-specification:Sans"
     id="path3007" /><path
     d="m 1447.3401,-367.55105 c -10e-5,-22.89799 6.1479,-40.82435 18.4439,-53.77913 12.2959,-12.95453 28.1677,-19.43186 47.6155,-19.432 12.735,1.4e-4 24.2154,3.04276 34.4412,9.12786 10.2256,6.08537 18.0203,14.5702 23.3843,25.45452 5.3636,10.88452 8.0455,23.22752 8.0457,37.02902 -2e-4,13.98984 -2.8232,26.50536 -8.4692,37.54658 -5.6462,11.04129 -13.6449,19.40065 -23.9959,25.07811 -10.3513,5.67747 -21.518,8.5162 -33.5002,8.51621 -12.9861,-10e-6 -24.592,-3.13673 -34.8177,-9.41018 -10.2257,-6.27343 -17.9734,-14.83668 -23.2431,-25.68976 -5.2697,-10.85302 -7.9046,-22.33342 -7.9045,-34.44123 z m 18.8203,0.28231 c 0,16.62468 4.4698,29.72049 13.4095,39.28746 8.9396,9.56703 20.1534,14.35053 33.6414,14.35051 13.7387,2e-5 25.0466,-4.83053 33.9236,-14.49166 8.8768,-9.66107 13.3153,-23.36854 13.3154,-41.12245 -10e-5,-11.22939 -1.8978,-21.03164 -5.6931,-29.40679 -3.7956,-8.37494 -9.3476,-14.86795 -16.656,-19.47905 -7.3087,-4.61086 -15.5112,-6.91635 -24.6076,-6.91648 -12.9234,1.3e-4 -24.0431,4.43859 -33.3591,13.3154 -9.3161,8.87703 -13.9741,23.69803 -13.9741,44.46306 z"
     style="line-height:100%;fill:#2d4693;font-family:Sans;-inkscape-font-specification:Sans"
     id="path3009" /><path
     d="m 1596.4913,-344.68433 17.2206,-1.50563 c 0.8155,6.90083 2.7132,12.56261 5.6931,16.98536 2.9799,4.4228 7.6066,7.99866 13.8801,10.72759 6.2733,2.72897 13.331,4.09344 21.1728,4.09343 6.9635,10e-6 13.1115,-1.03511 18.444,-3.10536 5.3323,-2.07022 9.3003,-4.90895 11.9038,-8.5162 2.6034,-3.60721 3.9052,-7.54379 3.9053,-11.80977 -10e-5,-4.32864 -1.2548,-8.10838 -3.7641,-11.33925 -2.5095,-3.23078 -6.65,-5.94404 -12.4214,-8.1398 -3.7015,-1.44284 -11.8883,-3.68559 -24.5606,-6.72827 -12.6724,-3.04256 -21.5493,-5.91266 -26.6308,-8.61031 -6.5871,-3.45032 -11.4961,-7.73195 -14.7269,-12.84489 -3.2308,-5.11276 -4.8462,-10.83728 -4.8462,-17.17356 0,-6.96342 1.9761,-13.47211 5.9284,-19.5261 3.9522,-6.05375 9.7238,-10.64905 17.3147,-13.7859 7.5908,-3.13659 16.0286,-4.70495 25.3134,-4.70509 10.2256,1.4e-4 19.2437,1.64692 27.0542,4.94034 7.8103,3.29369 13.8172,8.13993 18.0205,14.53871 4.2031,6.39904 6.4615,13.64486 6.7753,21.7375 l -17.5029,1.31742 c -0.9411,-8.71998 -4.1249,-15.30709 -9.5513,-19.76136 -5.4267,-4.45402 -13.441,-6.68109 -24.043,-6.68122 -11.0413,1.3e-4 -19.087,2.02331 -24.1371,6.06956 -5.0502,4.04649 -7.5752,8.92409 -7.5752,14.63282 0,4.95612 1.7879,9.03386 5.3638,12.23322 3.5131,3.19955 12.688,6.47742 27.5247,9.83363 14.8367,3.35637 25.0153,6.28921 30.5361,8.79851 8.0299,3.7014 13.9583,8.3908 17.7852,14.06821 3.8267,5.67752 5.7401,12.21758 5.7402,19.6202 -10e-5,7.33997 -2.1017,14.25644 -6.3048,20.74943 -4.2034,6.49303 -10.2415,11.54315 -18.1146,15.15038 -7.8733,3.60723 -16.7345,5.41084 -26.5837,5.41085 -12.4843,-10e-6 -22.9452,-1.8193 -31.383,-5.4579 -8.4378,-3.6386 -15.0563,-9.11217 -19.8554,-16.42075 -4.7992,-7.30854 -7.3243,-15.5738 -7.5752,-24.7958 z m 52.9792,-111.88694 10.3512,-15.99729 19.1968,0 -21.1729,26.34848 -18.0675,0 -20.326,-26.34848 19.385,0 z"
     style="line-height:100%;fill:#2d4693;font-family:Sans;-inkscape-font-specification:Sans"
     id="path3011" /><path
     d="m 905.2201,-107.64212 0,-137.95311 18.25573,0 0,121.67351 67.94144,0 0,16.2796 z"
     style="line-height:100%;font-family:Sans;-inkscape-font-specification:Sans;fill:#999999"
     id="path3013" /><path
     d="m 1016.3542,-107.64212 0,-137.95311 18.2558,0 0,137.95311 z"
     style="line-height:100%;font-family:Sans;-inkscape-font-specification:Sans;fill:#999999"
     id="path3015" /><path
     d="m 1065.9458,-107.64212 0,-137.95311 51.756,0 c 10.5393,1.4e-4 18.9927,1.39598 25.3604,4.18753 6.3674,2.79181 11.3548,7.08912 14.9622,12.89193 3.6071,5.80305 5.4107,11.87261 5.4108,18.20868 -10e-5,5.89714 -1.5998,11.44913 -4.7992,16.656 -3.1996,5.20705 -8.0301,9.41025 -14.4917,12.60963 8.3436,2.44672 14.7582,6.61856 19.2438,12.51553 4.4854,5.8971 6.7282,12.86062 6.7283,20.89058 -1e-4,6.46169 -1.3646,12.46851 -4.0934,18.02048 -2.7291,5.55202 -6.101,9.83364 -10.1159,12.84488 -4.0151,3.01126 -9.0496,5.28539 -15.1034,6.82238 -6.0539,1.53699 -13.4723,2.30549 -22.255,2.30549 z m 18.2558,-79.98646 29.8302,0 c 8.0927,8e-5 13.8956,-0.53316 17.4088,-1.59972 4.6423,-1.38008 8.1397,-3.66989 10.4924,-6.86943 2.3524,-3.19937 3.5287,-7.21437 3.5288,-12.04502 -10e-5,-4.57951 -1.098,-8.6102 -3.2936,-12.09207 -2.1958,-3.48165 -5.3325,-5.86555 -9.4102,-7.15173 -4.0778,-1.28593 -11.0727,-1.92896 -20.9846,-1.92908 l -27.5718,0 z m 0,63.70686 34.3471,0 c 5.897,2e-5 10.0374,-0.21955 12.4214,-0.65871 4.2031,-0.75279 7.7163,-2.00748 10.5394,-3.76407 2.823,-1.75654 5.1441,-4.31297 6.9635,-7.66929 1.8192,-3.35626 2.7289,-7.23011 2.729,-11.62156 -10e-5,-5.14418 -1.3175,-9.61401 -3.9523,-13.40949 -2.6349,-3.79538 -6.2892,-6.46159 -10.9628,-7.99865 -4.6738,-1.53693 -11.4021,-2.30543 -20.1849,-2.30549 l -31.9004,0 z"
     style="line-height:100%;font-family:Sans;-inkscape-font-specification:Sans;fill:#999999"
     id="path3017" /><path
     d="m 1195.8062,-107.64212 0,-137.95311 99.7478,0 0,16.2796 -81.4921,0 0,42.25166 76.3165,0 0,16.1855 -76.3165,0 0,46.95675 84.6916,0 0,16.2796 z"
     style="line-height:100%;font-family:Sans;-inkscape-font-specification:Sans;fill:#999999"
     id="path3019" /><path
     d="m 1324.4432,-107.64212 0,-137.95311 61.1662,0 c 12.2958,1.4e-4 21.6432,1.23914 28.0423,3.71702 6.3988,2.47814 11.5116,6.85387 15.3385,13.12719 3.8267,6.27356 5.7401,13.20571 5.7402,20.79647 -10e-5,9.78667 -3.1682,18.03625 -9.5042,24.74875 -6.3363,6.71266 -16.1229,10.9786 -29.3598,12.79784 4.8305,2.32123 8.5005,4.61104 11.0099,6.86942 5.3324,4.89334 10.3825,11.00995 15.1504,18.34984 l 23.996,37.54658 -22.9609,0 -18.2557,-28.70102 c -5.3325,-8.28092 -9.7239,-14.61709 -13.1742,-19.00855 -3.4505,-4.39136 -6.5402,-7.46535 -9.2691,-9.22197 -2.729,-1.7565 -5.505,-2.97982 -8.328,-3.66996 -2.0703,-0.43908 -5.4579,-0.65865 -10.1629,-0.65871 l -21.1729,0 0,61.26021 z m 18.2558,-77.0693 39.2404,0 c 8.3436,7e-5 14.868,-0.86252 19.5731,-2.5878 4.705,-1.72512 8.2809,-4.48543 10.7276,-8.28095 2.4466,-3.79534 3.6699,-7.92013 3.67,-12.37438 -10e-5,-6.52427 -2.3683,-11.88807 -7.1047,-16.09139 -4.7365,-4.20309 -12.2176,-6.30469 -22.4432,-6.30481 l -43.6632,0 z"
     style="line-height:100%;font-family:Sans;-inkscape-font-specification:Sans;fill:#999999"
     id="path3021" /><path
     d="m 1463.8079,-107.64212 0,-137.95311 99.7478,0 0,16.2796 -81.4921,0 0,42.25166 76.3165,0 0,16.1855 -76.3165,0 0,46.95675 84.6916,0 0,16.2796 z"
     style="line-height:100%;font-family:Sans;-inkscape-font-specification:Sans;fill:#999999"
     id="path3023" /><path
     d="m 1690.593,-156.0104 18.2557,4.61098 c -3.8269,14.99357 -10.712,26.42692 -20.6553,34.30008 -9.9435,7.87318 -22.0983,11.80976 -36.4644,11.80976 -14.8681,0 -26.9602,-3.02694 -36.2762,-9.08081 -9.3161,-6.05387 -16.4051,-14.821 -21.267,-26.30143 -4.8619,-11.48037 -7.2929,-23.80768 -7.2929,-36.98197 0,-14.36611 2.7446,-26.89731 8.2339,-37.59364 5.4893,-10.69611 13.2997,-18.82021 23.4313,-24.37234 10.1316,-5.55187 21.2827,-8.32786 33.4532,-8.328 13.8015,1.4e-4 25.4074,3.51326 34.8176,10.53939 9.4101,7.02638 15.9658,16.90705 19.6673,29.64204 l -17.9734,4.23458 c -3.1996,-10.03742 -7.8419,-17.34597 -13.9271,-21.9257 -6.0853,-4.5795 -13.7389,-6.8693 -22.9608,-6.86943 -10.6022,1.3e-4 -19.4634,2.54087 -26.5837,7.62224 -7.1204,5.0816 -12.1235,11.90397 -15.0093,20.46712 -2.8858,8.56335 -4.3287,17.39321 -4.3286,26.48963 -10e-5,11.73141 1.7094,21.9728 5.1285,30.72421 3.419,8.75149 8.7357,15.29156 15.9502,19.62021 7.2145,4.32869 15.0249,6.49303 23.4314,6.49302 10.2256,1e-5 18.883,-2.94851 25.972,-8.84556 7.0889,-5.89702 11.8881,-14.64847 14.3976,-26.25438 z"
     style="line-height:100%;font-family:Sans;-inkscape-font-specification:Sans;fill:#999999"
     id="path3025" /></g>

</g></svg>