<?xml version="1.0" encoding="UTF-8" standalone="no"?>
<!-- Created with Inkscape (http://www.inkscape.org/) -->

<svg
   xmlns:dc="http://purl.org/dc/elements/1.1/"
   xmlns:cc="http://creativecommons.org/ns#"
   xmlns:rdf="http://www.w3.org/1999/02/22-rdf-syntax-ns#"
   xmlns:svg="http://www.w3.org/2000/svg"
   xmlns="http://www.w3.org/2000/svg"
   xmlns:sodipodi="http://sodipodi.sourceforge.net/DTD/sodipodi-0.dtd"
   xmlns:inkscape="http://www.inkscape.org/namespaces/inkscape"
   id="svg2992"
   version="1.1"
   inkscape:version="0.48.4 r9939"
   width="1778.1626"
   height="727.86786"
   xml:space="preserve"
   sodipodi:docname="spsse-long-right.svg"><metadata
     id="metadata2998"><rdf:RDF><cc:Work
         rdf:about=""><dc:format>image/svg+xml</dc:format><dc:type
           rdf:resource="http://purl.org/dc/dcmitype/StillImage" /><dc:title /></cc:Work></rdf:RDF></metadata><defs
     id="defs2996"><clipPath
       clipPathUnits="userSpaceOnUse"
       id="clipPath3006"><path
         d="M 0,600 800,600 800,0 0,0 0,600 z"
         id="path3008"
         inkscape:connector-curvature="0" /></clipPath></defs><sodipodi:namedview
     pagecolor="#ffffff"
     bordercolor="#666666"
     borderopacity="1"
     objecttolerance="10"
     gridtolerance="10"
     guidetolerance="10"
     inkscape:pageopacity="0"
     inkscape:pageshadow="2"
     inkscape:window-width="1402"
     inkscape:window-height="814"
     id="namedview2994"
     showgrid="false"
     fit-margin-top="0"
     fit-margin-left="0"
     fit-margin-right="0"
     fit-margin-bottom="0"
     inkscape:zoom="0.31466667"
     inkscape:cx="-46.388371"
     inkscape:cy="-10.759935"
     inkscape:window-x="0"
     inkscape:window-y="0"
     inkscape:window-maximized="0"
     inkscape:current-layer="g3000" /><g
     id="g3000"
     inkscape:groupmode="layer"
     inkscape:label="logospsse"
     transform="matrix(1.25,0,0,-1.25,-1111.8966,855.29033)"><path
   sodipodi:type="arc"
   style="fill:#ffffff;fill-opacity:1;stroke:none"
   id="path3006"
   sodipodi:cx="368.64407"
   sodipodi:cy="367.1687"
   sodipodi:rx="365.46609"
   sodipodi:ry="367.05508"
   d="m 734.11017,367.1687 a 365.46609,367.05508 0 1 1 -730.9321915,0 365.46609,367.05508 0 1 1 730.9321915,0 z"
   transform="matrix(0.8,0,0,-0.8,889.51728,684.2777)" /><g
   id="g3043"
   transform="matrix(0.96031161,0,0,0.95617241,53.396923,11.437339)"><g
     transform="translate(1148.9243,580.98126)"
     id="g3018"><path
       inkscape:connector-curvature="0"
       id="path3020"
       style="fill:#2d4693;fill-opacity:1;fill-rule:evenodd;stroke:none"
       d="m 0,0 c -12.986,-0.484 -24.128,-14.776 -33.215,-50.951 -11.565,-46.043 -18.598,-75.269 -29.344,-118.062 -6.3,-25.089 -32.077,-34.346 -56.249,-34.381 -49.113,-0.071 -138.636,0.99 -140.049,1.005 9.257,-150.582 134.531,-269.86 287.712,-269.86 153.647,0 279.213,119.998 287.791,271.228 -3.352,-0.002 -70.829,-0.038 -105.166,0.297 -17.736,0.174 -30.199,-16.71 -39.176,-51.232 -9.311,-35.798 -8.283,-40.615 -17.938,-77.102 -9.655,-36.485 -17.979,-60.286 -26.181,-60.609 -8.581,-0.339 -16.933,25.457 -27.104,65.679 C 88.879,-275.734 56.502,-133.569 38.082,-56.6 28.082,-21.492 16.099,-0.45 1.274,0 0.851,0.013 0.418,0.016 0,0 m 28.855,103.251 c -159.202,0 -288.262,-128.831 -288.262,-287.75 0,-1.378 0.012,-2.757 0.031,-4.131 0.621,-0.007 98.014,-1.145 144.785,-1.366 46.225,-0.218 41.524,36.498 55.037,94.912 13.655,59.022 34.615,135.008 34.615,135.008 0,0 11.105,50.585 23.177,50.401 12.879,-0.195 15.059,-8.887 27.865,-50.401 18.87,-61.172 50.539,-206.781 70.331,-291.88 5.193,-22.332 17.816,-53.922 30.351,-53.699 15.174,0.274 28.196,54.636 42.152,86.415 11.033,25.127 22.533,30.423 42.733,30.61 43.701,0.436 104.154,-0.545 105.401,-0.564 0.026,1.561 0.047,3.128 0.047,4.695 0,158.919 -129.059,287.75 -288.263,287.75" /></g><g
     transform="translate(1006.749,503.87916)"
     id="g3022"><path
       inkscape:connector-curvature="0"
       id="path3024"
       style="fill:#baadaa;fill-opacity:1;fill-rule:evenodd;stroke:none"
       d="m 0,0 c -25.171,-19.275 -35.167,-27.184 -52.408,-56.441 43.074,-0.653 40.829,-28.012 39.309,-37.178 l -3.48,-18.798 c 9.559,-0.067 18.897,-0.08 27.622,-0.031 0.179,25.307 20.813,44.985 46.208,44.985 25.505,0 46.192,-20.666 46.192,-46.126 0,-25.46 -20.687,-46.125 -46.192,-46.125 -21.063,0 -38.855,14.092 -44.413,33.34 -10.296,0.112 -21.075,0.212 -32.238,0.317 l -16.459,-74.948 c 0,0 41.031,-28.916 64.823,-31.67 3.104,23.406 11.433,41.626 30.353,48.188 51.378,16.523 118.62,41.308 118.62,41.308 0,0 8.38,36.789 -13.981,90.429 C 127.877,-76.148 99.689,-55.976 99.689,-55.976 83.732,-47.252 56.135,-31.568 0,0" /></g></g><path
   inkscape:connector-curvature="0"
   id="path2995"
   style="font-size:195.60296631px;font-style:normal;font-variant:normal;font-weight:normal;font-stretch:normal;text-align:start;line-height:100%;letter-spacing:0px;word-spacing:0px;writing-mode:lr-tb;text-anchor:start;fill:#2d4693;fill-opacity:1;stroke:none;font-family:Sans;-inkscape-font-specification:Sans"
   d="m 1506.5076,549.03655 17.1452,1.55783 c 0.8119,-7.14011 2.7013,-12.99821 5.6682,-17.57432 2.9667,-4.57616 7.5731,-8.27602 13.8191,-11.09958 6.2459,-2.82358 13.2726,-4.23537 21.0801,-4.23536 6.9329,-10e-6 13.0539,1.071 18.3631,3.21304 5.3089,2.142 9.2595,5.07916 11.8516,8.8115 2.5921,3.73228 3.8881,7.80537 3.8882,12.21927 -10e-5,4.47873 -1.2493,8.38955 -3.7476,11.73244 -2.4985,3.3428 -6.6208,6.15015 -12.367,8.42204 -3.6852,1.49287 -11.8361,3.81339 -24.4528,6.96158 -12.6169,3.14805 -21.4549,6.11767 -26.5142,8.90886 -6.5582,3.56996 -11.4456,8.00006 -14.6623,13.29029 -3.2166,5.29005 -4.825,11.21306 -4.825,17.76905 0,7.20487 1.9675,13.93925 5.9024,20.20317 3.935,6.26366 9.6813,11.0183 17.2389,14.26393 7.5575,3.24534 15.9583,4.86808 25.2024,4.86823 10.1808,-1.5e-4 19.1593,-1.70403 26.9356,-5.11165 7.7761,-3.40791 13.7566,-8.42218 17.9415,-15.04284 4.1847,-6.62091 6.4332,-14.11799 6.7456,-22.49124 l -17.4262,-1.36311 c -0.937,9.02235 -4.1068,15.83787 -9.5094,20.44659 -5.4029,4.60847 -13.3821,6.91276 -23.9376,6.91289 -10.9929,-1.3e-4 -19.0033,-2.09347 -24.0314,-6.28002 -5.028,-4.18681 -7.5419,-9.23353 -7.5419,-15.14021 0,-5.12798 1.7801,-9.34711 5.3403,-12.65741 3.4977,-3.31049 12.6324,-6.70202 27.4041,-10.1746 14.7716,-3.47276 24.9056,-6.50729 30.4021,-9.1036 7.9947,-3.82976 13.8972,-8.68176 17.7073,-14.55602 3.8099,-5.87439 5.7149,-12.64123 5.715,-20.30054 -1e-4,-7.59447 -2.0925,-14.75077 -6.2771,-21.46891 -4.1849,-6.71817 -10.1966,-11.94341 -18.0353,-15.67571 -7.8387,-3.73232 -16.6611,-5.59847 -26.4671,-5.59847 -12.4295,0 -22.8446,1.88238 -31.2454,5.64716 -8.4008,3.76475 -14.9903,9.42812 -19.7684,16.99013 -4.7782,7.56196 -7.2921,16.11382 -7.542,25.65559 z" /><path
   inkscape:connector-curvature="0"
   id="path2997"
   style="font-size:195.60296631px;font-style:normal;font-variant:normal;font-weight:normal;font-stretch:normal;text-align:start;line-height:100%;letter-spacing:0px;word-spacing:0px;writing-mode:lr-tb;text-anchor:start;fill:#2d4693;fill-opacity:1;stroke:none;font-family:Sans;-inkscape-font-specification:Sans"
   d="m 1640.858,503.17779 0,142.73661 51.8101,0 c 9.1189,-1.4e-4 16.0832,-0.45451 20.8927,-1.36311 6.7455,-1.16851 12.3981,-3.39167 16.9577,-6.66948 4.5594,-3.27807 8.2289,-7.87043 11.0085,-13.7771 2.7793,-5.90691 4.169,-12.39788 4.1691,-19.47293 -10e-5,-12.13822 -3.7164,-22.41019 -11.149,-30.81592 -7.4327,-8.40588 -20.8615,-12.60879 -40.2864,-12.60873 l -35.227,0 0,-58.02934 z m 18.1757,74.87343 35.5082,0 c 11.7423,-7e-5 20.0806,2.27177 25.0149,6.81553 4.9343,4.54359 7.4015,10.9372 7.4015,19.18084 0,5.97159 -1.4522,11.08323 -4.3565,15.33493 -2.9045,4.25148 -6.7301,7.05882 -11.477,8.42204 -3.0605,0.84371 -8.7131,1.26562 -16.9577,1.26575 l -35.1334,0 z" /><path
   inkscape:connector-curvature="0"
   id="path2999"
   style="font-size:195.60296631px;font-style:normal;font-variant:normal;font-weight:normal;font-stretch:normal;text-align:start;line-height:100%;letter-spacing:0px;word-spacing:0px;writing-mode:lr-tb;text-anchor:start;fill:#2d4693;fill-opacity:1;stroke:none;font-family:Sans;-inkscape-font-specification:Sans"
   d="m 1762.8413,549.03655 17.1451,1.55783 c 0.8119,-7.14011 2.7013,-12.99821 5.6682,-17.57432 2.9668,-4.57616 7.5732,-8.27602 13.8191,-11.09958 6.246,-2.82358 13.2727,-4.23537 21.0801,-4.23536 6.9329,-10e-6 13.054,1.071 18.3631,3.21304 5.309,2.142 9.2595,5.07916 11.8517,8.8115 2.592,3.73228 3.888,7.80537 3.8881,12.21927 -10e-5,4.47873 -1.2493,8.38955 -3.7476,11.73244 -2.4984,3.3428 -6.6208,6.15015 -12.3669,8.42204 -3.6852,1.49287 -11.8362,3.81339 -24.4529,6.96158 -12.6169,3.14805 -21.4549,6.11767 -26.514,8.90886 -6.5583,3.56996 -11.4458,8.00006 -14.6624,13.29029 -3.2167,5.29005 -4.8251,11.21306 -4.8251,17.76905 0,7.20487 1.9675,13.93925 5.9025,20.20317 3.9349,6.26366 9.6812,11.0183 17.2388,14.26393 7.5576,3.24534 15.9584,4.86808 25.2024,4.86823 10.1808,-1.5e-4 19.1594,-1.70403 26.9356,-5.11165 7.7762,-3.40791 13.7567,-8.42218 17.9415,-15.04284 4.1847,-6.62091 6.4332,-14.11799 6.7456,-22.49124 l -17.4261,-1.36311 c -0.937,9.02235 -4.1068,15.83787 -9.5095,20.44659 -5.4028,4.60847 -13.382,6.91276 -23.9376,6.91289 -10.9929,-1.3e-4 -19.0033,-2.09347 -24.0312,-6.28002 -5.028,-4.18681 -7.5421,-9.23353 -7.542,-15.14021 -10e-5,-5.12798 1.78,-9.34711 5.3403,-12.65741 3.4976,-3.31049 12.6323,-6.70202 27.4041,-10.1746 14.7715,-3.47276 24.9056,-6.50729 30.4021,-9.1036 7.9947,-3.82976 13.8971,-8.68176 17.7073,-14.55602 3.8099,-5.87439 5.7149,-12.64123 5.715,-20.30054 -10e-5,-7.59447 -2.0925,-14.75077 -6.2772,-21.46891 -4.1849,-6.71817 -10.1966,-11.94341 -18.0351,-15.67571 -7.8388,-3.73232 -16.6612,-5.59847 -26.4673,-5.59847 -12.4294,0 -22.8446,1.88238 -31.2453,5.64716 -8.4009,3.76475 -14.9903,9.42812 -19.7684,16.99013 -4.7782,7.56196 -7.2922,16.11382 -7.542,25.65559 z m 52.747,115.76659 10.3058,16.552 19.1126,0 -21.08,-27.26211 -17.9884,0 -20.2368,27.26211 19.2999,0 z" /><path
   inkscape:connector-curvature="0"
   id="path3001"
   style="font-size:195.60296631px;font-style:normal;font-variant:normal;font-weight:normal;font-stretch:normal;text-align:start;line-height:100%;letter-spacing:0px;word-spacing:0px;writing-mode:lr-tb;text-anchor:start;fill:#2d4693;fill-opacity:1;stroke:none;font-family:Sans;-inkscape-font-specification:Sans"
   d="m 1891.0081,549.03655 17.1452,1.55783 c 0.8119,-7.14011 2.7013,-12.99821 5.6682,-17.57432 2.9667,-4.57616 7.5731,-8.27602 13.8191,-11.09958 6.2459,-2.82358 13.2726,-4.23537 21.0801,-4.23536 6.9329,-10e-6 13.0539,1.071 18.3631,3.21304 5.3089,2.142 9.2595,5.07916 11.8516,8.8115 2.592,3.73228 3.888,7.80537 3.8881,12.21927 -10e-5,4.47873 -1.2492,8.38955 -3.7475,11.73244 -2.4985,3.3428 -6.6208,6.15015 -12.3671,8.42204 -3.6851,1.49287 -11.836,3.81339 -24.4528,6.96158 -12.6168,3.14805 -21.4548,6.11767 -26.5141,8.90886 -6.5583,3.56996 -11.4457,8.00006 -14.6623,13.29029 -3.2167,5.29005 -4.825,11.21306 -4.825,17.76905 0,7.20487 1.9675,13.93925 5.9024,20.20317 3.9349,6.26366 9.6812,11.0183 17.2389,14.26393 7.5574,3.24534 15.9582,4.86808 25.2024,4.86823 10.1808,-1.5e-4 19.1593,-1.70403 26.9356,-5.11165 7.776,-3.40791 13.7566,-8.42218 17.9415,-15.04284 4.1847,-6.62091 6.4332,-14.11799 6.7456,-22.49124 l -17.4263,-1.36311 c -0.9369,9.02235 -4.1067,15.83787 -9.5094,20.44659 -5.4028,4.60847 -13.382,6.91276 -23.9376,6.91289 -10.9928,-1.3e-4 -19.0033,-2.09347 -24.0313,-6.28002 -5.028,-4.18681 -7.5419,-9.23353 -7.5419,-15.14021 0,-5.12798 1.7801,-9.34711 5.3402,-12.65741 3.4978,-3.31049 12.6324,-6.70202 27.4042,-10.1746 14.7715,-3.47276 24.9056,-6.50729 30.4021,-9.1036 7.9947,-3.82976 13.8971,-8.68176 17.7073,-14.55602 3.8098,-5.87439 5.7148,-12.64123 5.715,-20.30054 -2e-4,-7.59447 -2.0925,-14.75077 -6.2772,-21.46891 -4.1848,-6.71817 -10.1965,-11.94341 -18.0352,-15.67571 -7.8387,-3.73232 -16.6611,-5.59847 -26.4672,-5.59847 -12.4294,0 -22.8445,1.88238 -31.2453,5.64716 -8.4008,3.76475 -14.9903,9.42812 -19.7684,16.99013 -4.7782,7.56196 -7.2922,16.11382 -7.542,25.65559 z" /><path
   inkscape:connector-curvature="0"
   id="path3003"
   style="font-size:195.60296631px;font-style:normal;font-variant:normal;font-weight:normal;font-stretch:normal;text-align:start;line-height:100%;letter-spacing:0px;word-spacing:0px;writing-mode:lr-tb;text-anchor:start;fill:#2d4693;fill-opacity:1;stroke:none;font-family:Sans;-inkscape-font-specification:Sans"
   d="m 2025.7332,503.17779 0,142.73661 99.3105,0 0,-16.84409 -81.1348,0 0,-43.71674 75.9819,0 0,-16.74673 -75.9819,0 0,-48.58497 84.3203,0 0,-16.84408 z" /><path
   inkscape:connector-curvature="0"
   id="path3005"
   style="font-size:247.97395324999999000px;font-style:normal;font-variant:normal;font-weight:normal;font-stretch:normal;text-align:start;line-height:100%;letter-spacing:0px;word-spacing:0px;writing-mode:lr-tb;text-anchor:start;fill:#999999;fill-opacity:1;stroke:none;font-family:Sans;-inkscape-font-specification:Sans"
   d="m 1497.6071,303.77494 52.747,142.73661 19.5812,0 56.2134,-142.73661 -20.7052,0 -16.0209,43.22992 -57.4315,0 -15.084,-43.22992 z m 39.6306,58.61353 46.5635,0 -14.3344,39.53006 c -4.3723,12.0082 -7.6201,21.87448 -9.7437,29.59886 -1.749,-9.15239 -4.2161,-18.23976 -7.4015,-27.26211 z" /><path
   inkscape:connector-curvature="0"
   id="path3007"
   style="font-size:195.60296631px;font-style:normal;font-variant:normal;font-weight:normal;font-stretch:normal;text-align:start;line-height:100%;letter-spacing:0px;word-spacing:0px;writing-mode:lr-tb;text-anchor:start;fill:#2d4693;fill-opacity:1;stroke:none;font-family:Sans;-inkscape-font-specification:Sans"
   d="m 1733.3292,303.77494 -53.2155,142.73661 19.6748,0 35.6955,-103.69337 c 2.8731,-8.30849 5.2778,-16.09765 7.2141,-23.36752 2.1235,7.78914 4.5907,15.57831 7.4015,23.36752 l 37.1009,103.69337 18.5505,0 -53.7777,-142.73661 z" /><path
   inkscape:connector-curvature="0"
   id="path3009"
   style="font-size:195.60296631px;font-style:normal;font-variant:normal;font-weight:normal;font-stretch:normal;text-align:start;line-height:100%;letter-spacing:0px;word-spacing:0px;writing-mode:lr-tb;text-anchor:start;fill:#2d4693;fill-opacity:1;stroke:none;font-family:Sans;-inkscape-font-specification:Sans"
   d="m 1816.7125,373.29332 c 0,23.69197 6.1211,42.23993 18.3632,55.64391 12.242,13.40373 28.0442,20.10566 47.4067,20.1058 12.6791,-1.4e-4 24.1093,-3.14826 34.2902,-9.44437 10.1808,-6.29638 17.9414,-15.07542 23.2818,-26.33714 5.3402,-11.26195 8.0103,-24.03293 8.0104,-38.31301 -1e-4,-14.47493 -2.8108,-27.42442 -8.432,-38.8485 -5.6215,-11.42414 -13.5851,-20.07336 -23.8908,-25.94768 -10.3058,-5.87434 -21.4236,-8.8115 -33.3533,-8.81151 -12.9292,10e-6 -24.4842,3.24549 -34.665,9.73647 -10.1809,6.49097 -17.8947,15.35114 -23.1412,26.58056 -5.2466,11.22934 -7.87,23.10782 -7.87,35.63547 z m 18.7379,-0.2921 c 0,-17.20114 4.4503,-30.75105 13.3508,-40.64975 8.9004,-9.89875 20.065,-14.84812 33.4938,-14.84811 13.6786,-10e-6 24.9369,4.99803 33.775,14.99416 8.8379,9.99607 13.2569,24.17884 13.257,42.54836 -10e-5,11.61877 -1.8895,21.76091 -5.6682,30.42646 -3.7789,8.66534 -9.3066,15.38351 -16.583,20.15448 -7.2766,4.77075 -15.4432,7.15618 -24.4997,7.15632 -12.8667,-1.4e-4 -23.9376,-4.5925 -33.2128,-13.77711 -9.2753,-9.18484 -13.9129,-24.51976 -13.9129,-46.00481 z" /><path
   inkscape:connector-curvature="0"
   id="path3011"
   style="font-size:195.60296631px;font-style:normal;font-variant:normal;font-weight:normal;font-stretch:normal;text-align:start;line-height:100%;letter-spacing:0px;word-spacing:0px;writing-mode:lr-tb;text-anchor:start;fill:#2d4693;fill-opacity:1;stroke:none;font-family:Sans;-inkscape-font-specification:Sans"
   d="m 1965.21,349.63371 17.1451,1.55782 c 0.8119,-7.14011 2.7013,-12.99822 5.6682,-17.57432 2.9668,-4.57616 7.5732,-8.27602 13.8192,-11.09957 6.2459,-2.82359 13.2726,-4.23538 21.08,-4.23537 6.9329,-10e-6 13.054,1.071 18.3632,3.21304 5.3089,2.142 9.2595,5.07917 11.8516,8.81151 2.592,3.73228 3.888,7.80536 3.8881,12.21926 -1e-4,4.47873 -1.2492,8.38954 -3.7476,11.73245 -2.4985,3.34279 -6.6208,6.15014 -12.3669,8.42204 -3.6853,1.49286 -11.8362,3.81339 -24.4529,6.96157 -12.6169,3.14805 -21.4549,6.11767 -26.514,8.90887 -6.5583,3.56996 -11.4458,8.00004 -14.6624,13.29028 -3.2167,5.29006 -4.8251,11.21307 -4.825,17.76905 -10e-5,7.20488 1.9674,13.93926 5.9024,20.20317 3.9349,6.26366 9.6812,11.01829 17.2388,14.26392 7.5576,3.24535 15.9584,4.86809 25.2024,4.86823 10.1808,-1.4e-4 19.1594,-1.70402 26.9356,-5.11163 7.7762,-3.40791 13.7567,-8.42218 17.9416,-15.04285 4.1846,-6.62092 6.4332,-14.11799 6.7455,-22.49124 l -17.4261,-1.3631 c -0.937,9.02234 -4.1069,15.83786 -9.5095,20.44658 -5.4028,4.60847 -13.382,6.91276 -23.9376,6.91289 -10.9929,-1.3e-4 -19.0033,-2.09346 -24.0312,-6.28002 -5.0281,-4.1868 -7.542,-9.23353 -7.542,-15.14021 0,-5.12797 1.78,-9.3471 5.3402,-12.6574 3.4977,-3.3105 12.6324,-6.70203 27.4042,-10.17461 14.7715,-3.47276 24.9055,-6.50729 30.4021,-9.10361 7.9947,-3.82974 13.8971,-8.68174 17.7073,-14.55601 3.8099,-5.87439 5.7149,-12.64122 5.715,-20.30053 -1e-4,-7.59449 -2.0925,-14.75078 -6.2772,-21.46891 -4.1849,-6.71817 -10.1966,-11.94341 -18.0351,-15.67571 -7.8388,-3.73232 -16.6612,-5.59847 -26.4673,-5.59848 -12.4294,10e-6 -22.8446,1.88239 -31.2453,5.64716 -8.4008,3.76476 -14.9903,9.42813 -19.7685,16.99014 -4.7781,7.56195 -7.2921,16.1138 -7.5419,25.65559 z m 52.747,115.76659 10.3059,16.55199 19.1126,0 -21.0801,-27.26211 -17.9884,0 -20.2368,27.26211 19.2999,0 z" /><path
   inkscape:connector-curvature="0"
   id="path3013"
   style="font-size:195.60296631000000000px;font-style:normal;font-variant:normal;font-weight:normal;font-stretch:normal;text-align:start;line-height:100%;letter-spacing:0px;word-spacing:0px;writing-mode:lr-tb;text-anchor:start;fill:#808080;fill-opacity:1;stroke:none;font-family:Sans;-inkscape-font-specification:Sans"
   d="m 1511.9416,104.3721 0,142.7366 18.1757,0 0,-125.89252 67.6436,0 0,-16.84408 z" /><path
   inkscape:connector-curvature="0"
   id="path3015"
   style="font-size:195.60296631000000000px;font-style:normal;font-variant:normal;font-weight:normal;font-stretch:normal;text-align:start;line-height:100%;letter-spacing:0px;word-spacing:0px;writing-mode:lr-tb;text-anchor:start;fill:#808080;fill-opacity:1;stroke:none;font-family:Sans;-inkscape-font-specification:Sans"
   d="m 1622.5886,104.3721 0,142.7366 18.1757,0 0,-142.7366 z" /><path
   inkscape:connector-curvature="0"
   id="path3017"
   style="font-size:195.60296631000000000px;font-style:normal;font-variant:normal;font-weight:normal;font-stretch:normal;text-align:start;line-height:100%;letter-spacing:0px;word-spacing:0px;writing-mode:lr-tb;text-anchor:start;fill:#808080;fill-opacity:1;stroke:none;font-family:Sans;-inkscape-font-specification:Sans"
   d="m 1671.9627,104.3721 0,142.7366 51.5291,0 c 10.4931,-1.4e-4 18.9095,-1.44438 25.2493,-4.33273 6.3395,-2.88861 11.3051,-7.33493 14.8966,-13.33896 3.5912,-6.00427 5.3869,-12.28428 5.387,-18.84006 -10e-5,-6.10161 -1.5927,-11.84612 -4.778,-17.23355 -3.1855,-5.3876 -7.995,-9.73654 -14.4282,-13.04686 8.307,-2.53156 14.6935,-6.84805 19.1595,-12.9495 4.4657,-6.10158 6.6986,-13.30656 6.6987,-21.61496 -10e-5,-6.68574 -1.3586,-12.90085 -4.0755,-18.64534 -2.717,-5.74452 -6.0742,-10.17462 -10.0716,-13.29027 -3.9975,-3.11568 -9.0098,-5.46865 -15.037,-7.05894 -6.0274,-1.59029 -13.4134,-2.38543 -22.1576,-2.38543 z m 18.1757,82.75997 29.6996,0 c 8.0571,-9e-5 13.8346,0.55165 17.3325,1.6552 4.6219,1.42793 8.104,3.79713 10.4463,7.10761 2.3421,3.31031 3.5133,7.46453 3.5134,12.46268 -10e-5,4.73831 -1.0932,8.90876 -3.2791,12.51137 -2.1863,3.60236 -5.3092,6.06894 -9.369,7.39971 -4.0599,1.33052 -11.0242,1.99585 -20.8926,1.99597 l -27.4511,0 z m 0,-65.91589 34.1966,0 c 5.8712,-2e-5 9.9935,0.22717 12.367,0.68156 4.1847,0.77889 7.6824,2.07709 10.4932,3.89459 2.8106,1.81744 5.1216,4.46252 6.933,7.93521 1.8112,3.47265 2.7169,7.48082 2.717,12.02454 -10e-5,5.32255 -1.3118,9.94738 -3.9349,13.87446 -2.6234,3.92699 -6.2617,6.68566 -10.9149,8.276 -4.6533,1.59023 -11.352,2.38537 -20.0963,2.38544 l -31.7607,0 z" /><path
   inkscape:connector-curvature="0"
   id="path3019"
   style="font-size:195.60296631000000000px;font-style:normal;font-variant:normal;font-weight:normal;font-stretch:normal;text-align:start;line-height:100%;letter-spacing:0px;word-spacing:0px;writing-mode:lr-tb;text-anchor:start;fill:#808080;fill-opacity:1;stroke:none;font-family:Sans;-inkscape-font-specification:Sans"
   d="m 1801.2538,104.3721 0,142.7366 99.3106,0 0,-16.84409 -81.1348,0 0,-43.71674 75.9819,0 0,-16.74672 -75.9819,0 0,-48.58497 84.3202,0 0,-16.84408 z" /><path
   inkscape:connector-curvature="0"
   id="path3021"
   style="font-size:195.60296631000000000px;font-style:normal;font-variant:normal;font-weight:normal;font-stretch:normal;text-align:start;line-height:100%;letter-spacing:0px;word-spacing:0px;writing-mode:lr-tb;text-anchor:start;fill:#808080;fill-opacity:1;stroke:none;font-family:Sans;-inkscape-font-specification:Sans"
   d="m 1929.327,104.3721 0,142.7366 60.898,0 c 12.242,-1.4e-4 21.5484,-1.2821 27.9194,-3.8459 6.3708,-2.56407 11.4612,-7.09153 15.2714,-13.58237 3.8098,-6.4911 5.7148,-13.66363 5.7149,-21.5176 -10e-5,-10.12601 -3.1543,-18.66164 -9.4625,-25.60691 -6.3086,-6.94541 -16.0522,-11.35927 -29.2311,-13.24158 4.8093,-2.40173 8.4632,-4.77094 10.9617,-7.10763 5.3089,-5.06301 10.3369,-11.39171 15.0839,-18.98611 l 23.8907,-38.8485 -22.8601,0 -18.1757,29.69622 c -5.3092,8.56805 -9.6813,15.12393 -13.1165,19.66766 -3.4353,4.54363 -6.5115,7.72421 -9.2284,9.54174 -2.717,1.81741 -5.4808,3.08315 -8.2914,3.79722 -2.0613,0.45431 -5.4341,0.68149 -10.1185,0.68156 l -21.0801,0 0,-63.3844 z m 18.1757,79.74166 39.0684,0 c 8.307,-8e-5 14.8028,0.89243 19.4874,2.67753 4.6843,1.78494 8.2445,4.64096 10.6805,8.56809 2.4358,3.92695 3.6538,8.19476 3.6539,12.80345 -10e-5,6.75051 -2.358,12.30029 -7.0735,16.64936 -4.7158,4.34883 -12.164,6.52331 -22.3449,6.52343 l -43.4718,0 z" /><path
   inkscape:connector-curvature="0"
   id="path3023"
   style="font-size:195.60296631000000000px;font-style:normal;font-variant:normal;font-weight:normal;font-stretch:normal;text-align:start;line-height:100%;letter-spacing:0px;word-spacing:0px;writing-mode:lr-tb;text-anchor:start;fill:#808080;fill-opacity:1;stroke:none;font-family:Sans;-inkscape-font-specification:Sans"
   d="m 2068.0807,104.3721 0,142.7366 99.3106,0 0,-16.84409 -81.135,0 0,-43.71674 75.9821,0 0,-16.74672 -75.9821,0 0,-48.58497 84.3204,0 0,-16.84408 z" /><path
   inkscape:connector-curvature="0"
   id="path3025"
   style="font-size:195.60296631000000000px;font-style:normal;font-variant:normal;font-weight:normal;font-stretch:normal;text-align:start;line-height:100%;letter-spacing:0px;word-spacing:0px;writing-mode:lr-tb;text-anchor:start;fill:#808080;fill-opacity:1;stroke:none;font-family:Sans;-inkscape-font-specification:Sans"
   d="m 2293.8717,154.41754 18.1757,-4.77088 c -3.8102,-15.51346 -10.6651,-27.34326 -20.5648,-35.48941 -9.9,-8.14618 -22.0015,-12.21927 -36.3045,-12.21927 -14.803,0 -26.8421,3.13189 -36.1173,9.39569 -9.2752,6.26378 -16.3331,15.33491 -21.1737,27.21343 -4.8406,11.87843 -7.2609,24.63319 -7.2609,38.26431 0,14.86425 2.7325,27.82997 8.1978,38.89719 5.4652,11.06699 13.2413,19.4728 23.3286,25.21745 10.0872,5.74437 21.1893,8.61662 33.3065,8.61677 13.741,-1.5e-4 25.296,-3.63509 34.665,-10.90484 9.3688,-7.27002 15.8958,-17.49331 19.581,-30.66988 l -17.8946,-4.3814 c -3.1855,10.38545 -7.8075,17.94743 -13.866,22.68596 -6.0587,4.73829 -13.6787,7.10749 -22.8602,7.10763 -10.5556,-1.4e-4 -19.378,-2.62898 -26.4671,-7.88654 -7.0892,-5.25782 -12.0703,-12.31674 -14.9434,-21.17682 -2.8732,-8.86028 -4.3098,-17.99632 -4.3098,-27.40815 0,-12.13819 1.702,-22.7347 5.1061,-31.78957 3.404,-9.05495 8.6974,-15.82179 15.8803,-20.30054 7.1828,-4.47879 14.959,-6.71817 23.3286,-6.71816 10.1808,-1e-5 18.8002,3.05074 25.8583,9.15228 7.0578,6.10149 11.8359,15.1564 14.3344,27.16475 z" />
</g></svg>