<?xml version="1.0" encoding="UTF-8" standalone="no"?>
<svg
   xmlns:dc="http://purl.org/dc/elements/1.1/"
   xmlns:cc="http://creativecommons.org/ns#"
   xmlns:rdf="http://www.w3.org/1999/02/22-rdf-syntax-ns#"
   xmlns:svg="http://www.w3.org/2000/svg"
   xmlns="http://www.w3.org/2000/svg"
   xmlns:sodipodi="http://sodipodi.sourceforge.net/DTD/sodipodi-0.dtd"
   xmlns:inkscape="http://www.inkscape.org/namespaces/inkscape"
   width="25.945"
   height="25.527"
   viewBox="0 0 25.945 25.527"
   enable-background="new 0 0 25.945 25.527"
   id="svg2"
   version="1.1"
   inkscape:version="0.48.2 r9819"
   sodipodi:docname="cards.svg">
  <metadata
     id="metadata26">
    <rdf:RDF>
      <cc:Work
         rdf:about="">
        <dc:format>image/svg+xml</dc:format>
        <dc:type
           rdf:resource="http://purl.org/dc/dcmitype/StillImage" />
        <dc:title></dc:title>
      </cc:Work>
    </rdf:RDF>
  </metadata>
  <defs
     id="defs24" />
  <sodipodi:namedview
     pagecolor="#ffffff"
     bordercolor="#666666"
     borderopacity="1"
     objecttolerance="10"
     gridtolerance="10"
     guidetolerance="10"
     inkscape:pageopacity="0"
     inkscape:pageshadow="2"
     inkscape:window-width="640"
     inkscape:window-height="480"
     id="namedview22"
     showgrid="false"
     inkscape:zoom="9.2451129"
     inkscape:cx="12.9725"
     inkscape:cy="12.7635"
     inkscape:window-x="0"
     inkscape:window-y="0"
     inkscape:window-maximized="0"
     inkscape:current-layer="svg2" />
  <path
     d="m7.323,.991c0-.548-.443-.991-.99-.991h-5.342c-.548,0-.991,.443-.991,.991v5.343c0,.546 .443,.99 .991,.99h5.342c.547,0 .99-.444 .99-.99v-5.343z"
     id="path4"
     style="fill:#ffffff" />
  <path
     d="m16.53,.991c0-.548-.443-.991-.991-.991h-5.343c-.546,0-.99,.443-.99,.991v5.343c0,.546 .444,.99 .99,.99h5.343c.548,0 .991-.444 .991-.99v-5.343z"
     id="path6"
     style="fill:#ffffff" />
  <path
     d="m25.945,.991c0-.547-.443-.991-.99-.991h-5.342c-.548,0-.991,.443-.991,.991v5.343c0,.546 .443,.99 .991,.99h5.342c.547,0 .99-.444 .99-.99v-5.343z"
     id="path8"
     style="fill:#ffffff" />
  <path
     d="m7.323,9.987c0-.547-.443-.99-.99-.99h-5.342c-.548,.001-.991,.443-.991,.99v5.343c0,.547 .443,.99 .991,.99h5.342c.547,0 .99-.443 .99-.99v-5.343z"
     id="path10"
     style="fill:#ffffff" />
  <path
     d="m16.53,9.987c0-.547-.443-.99-.991-.99h-5.343c-.546,0-.99,.443-.99,.99v5.343c0,.547 .444,.99 .99,.99h5.343c.548,0 .991-.443 .991-.99v-5.343z"
     id="path12"
     style="fill:#ffffff" />
  <path
     d="m25.945,9.987c0-.547-.443-.99-.99-.99h-5.342c-.548,0-.991,.443-.991,.99v5.343c0,.547 .443,.99 .991,.99h5.342c.547,0 .99-.443 .99-.99v-5.343z"
     id="path14"
     style="fill:#ffffff" />
  <path
     d="m7.323,19.193c0-.546-.443-.99-.99-.99h-5.342c-.548-0-.991,.444-.991,.99v5.343c0,.547 .443,.991 .991,.991h5.342c.547,0 .99-.444 .99-.991v-5.343z"
     id="path16"
     style="fill:#ffffff" />
  <path
     d="m16.53,19.193c0-.546-.443-.99-.991-.99h-5.343c-.546,0-.99,.444-.99,.99v5.343c0,.547 .444,.991 .99,.991h5.343c.548,0 .991-.444 .991-.991v-5.343z"
     id="path18"
     style="fill:#ffffff" />
  <path
     d="m25.945,19.193c0-.546-.443-.99-.99-.99h-5.342c-.548,0-.991,.444-.991,.99v5.343c0,.547 .443,.991 .991,.991h5.342c.547,0 .99-.444 .99-.991v-5.343z"
     id="path20"
     style="fill:#ffffff" />
</svg>
