<?xml version="1.0" encoding="UTF-8" standalone="no"?>
<!-- Generator: Adobe Illustrator 15.1.0, SVG Export Plug-In . SVG Version: 6.00 Build 0)  -->

<svg
   xmlns:dc="http://purl.org/dc/elements/1.1/"
   xmlns:cc="http://creativecommons.org/ns#"
   xmlns:rdf="http://www.w3.org/1999/02/22-rdf-syntax-ns#"
   xmlns:svg="http://www.w3.org/2000/svg"
   xmlns="http://www.w3.org/2000/svg"
   xmlns:sodipodi="http://sodipodi.sourceforge.net/DTD/sodipodi-0.dtd"
   xmlns:inkscape="http://www.inkscape.org/namespaces/inkscape"
   version="1.1"
   id="Layer_1"
   x="0px"
   y="0px"
   width="100px"
   height="100px"
   viewBox="0 0 100 100"
   enable-background="new 0 0 100 100"
   xml:space="preserve"
   inkscape:version="0.48.4 r9939"
   sodipodi:docname="download.svg"><metadata
   id="metadata11"><rdf:RDF><cc:Work
       rdf:about=""><dc:format>image/svg+xml</dc:format><dc:type
         rdf:resource="http://purl.org/dc/dcmitype/StillImage" /></cc:Work></rdf:RDF></metadata><defs
   id="defs9" /><sodipodi:namedview
   pagecolor="#ffffff"
   bordercolor="#666666"
   borderopacity="1"
   objecttolerance="10"
   gridtolerance="10"
   guidetolerance="10"
   inkscape:pageopacity="0"
   inkscape:pageshadow="2"
   inkscape:window-width="1206"
   inkscape:window-height="710"
   id="namedview7"
   showgrid="false"
   inkscape:zoom="2.36"
   inkscape:cx="50"
   inkscape:cy="50"
   inkscape:window-x="0"
   inkscape:window-y="0"
   inkscape:window-maximized="0"
   inkscape:current-layer="Layer_1" />
<path
   d="m 24.800263,50.447073 c 8.317399,9.321138 16.6362,18.642276 24.9536,27.963414 0.6132,0.684263 1.331399,0.933681 2.025799,0.889282 0.694402,0.0444 1.415401,-0.203712 2.025801,-0.889282 8.3174,-9.321138 16.636201,-18.642276 24.9536,-27.963414 1.54,-1.722412 0.645401,-4.56263 -2.024399,-4.56263 -3.4916,0 -6.980401,0 -10.470601,0 0,-14.096621 0,-28.193243 0,-42.2911703 0,-1.4573249 -1.3034,-2.67306886 -2.8658,-2.67306886 -7.7434,0 -15.4896,0 -23.2372,0 -1.5624,0 -2.8658,1.21574396 -2.8658,2.67306886 0,14.0979273 0,28.1945493 0,42.2911703 -3.4902,0 -6.979001,0 -10.470601,0 -2.6698,0 -3.564399,2.840218 -2.024399,4.56263 z"
   id="path3"
   inkscape:connector-curvature="0"
   style="fill:#ffffff" />

<rect
   style="fill:#ffffff;fill-opacity:1;stroke:#ffffff;stroke-width:0;stroke-miterlimit:4;stroke-opacity:1;stroke-dasharray:none"
   id="rect2990"
   width="91.94915"
   height="13.833129"
   x="5.5084743"
   y="86.590599" /></svg>