<?xml version="1.0" encoding="UTF-8" standalone="no"?>
<svg
   xmlns:dc="http://purl.org/dc/elements/1.1/"
   xmlns:cc="http://creativecommons.org/ns#"
   xmlns:rdf="http://www.w3.org/1999/02/22-rdf-syntax-ns#"
   xmlns:svg="http://www.w3.org/2000/svg"
   xmlns="http://www.w3.org/2000/svg"
   xmlns:sodipodi="http://sodipodi.sourceforge.net/DTD/sodipodi-0.dtd"
   xmlns:inkscape="http://www.inkscape.org/namespaces/inkscape"
   enable-background="new 0 0 500 500"
   height="500px"
   id="Layer_1"
   version="1.1"
   viewBox="0 0 500 500"
   width="500px"
   xml:space="preserve"
   inkscape:version="0.48.4 r9939"
   sodipodi:docname="firma.svg"><metadata
     id="metadata9"><rdf:RDF><cc:Work
         rdf:about=""><dc:format>image/svg+xml</dc:format><dc:type
           rdf:resource="http://purl.org/dc/dcmitype/StillImage" /><dc:title></dc:title></cc:Work></rdf:RDF></metadata><defs
     id="defs7" /><sodipodi:namedview
     pagecolor="#ffffff"
     bordercolor="#666666"
     borderopacity="1"
     objecttolerance="10"
     gridtolerance="10"
     guidetolerance="10"
     inkscape:pageopacity="0"
     inkscape:pageshadow="2"
     inkscape:window-width="1062"
     inkscape:window-height="786"
     id="namedview5"
     showgrid="false"
     inkscape:zoom="0.472"
     inkscape:cx="250"
     inkscape:cy="250"
     inkscape:window-x="387"
     inkscape:window-y="126"
     inkscape:window-maximized="0"
     inkscape:current-layer="Layer_1" /><path
     clip-rule="evenodd"
     d="M468.051,195.31c0-9.909-8.181-17.993-18.172-17.993  c-4.993,0-9.537,2.004-12.812,5.27l-78.041,67.148V195.31c0-9.909-8.182-17.993-18.174-17.993c-4.993,0-9.536,2.004-12.811,5.27  L250,249.735V195.31c0-9.909-8.181-17.993-18.17-17.993c-4.996,0-9.539,2.004-12.813,5.27l-78.857,67.777L122.802,51.938  c0-11.082-8.907-19.989-19.989-19.989H70.108c-11.081,0-19.989,8.907-19.989,19.989l-18.17,379.773  c0,20.078,16.264,36.34,36.34,36.34h363.421c20.078,0,36.34-16.262,36.34-36.34V195.31z M204.574,312.418v20.529  c0,9.362-7.631,16.991-16.992,16.991H167.05c-9.359,0-16.99-7.629-16.99-16.991v-20.529c0-9.361,7.63-16.991,16.99-16.991h20.532  C196.943,295.427,204.574,303.057,204.574,312.418z M313.599,312.418v20.529c0,9.362-7.63,16.991-16.991,16.991h-20.53  c-9.36,0-16.991-7.629-16.991-16.991v-20.529c0-9.361,7.631-16.991,16.991-16.991h20.53  C305.969,295.427,313.599,303.057,313.599,312.418z M422.624,312.418v20.529c0,9.362-7.63,16.991-16.991,16.991h-20.529  c-9.362,0-16.991-7.629-16.991-16.991v-20.529c0-9.361,7.629-16.991,16.991-16.991h20.529  C414.994,295.427,422.624,303.057,422.624,312.418z"
     fill="#010101"
     fill-rule="evenodd"
     id="path3"
     style="fill:#ffffff" /></svg>