<?xml version="1.0" encoding="UTF-8" standalone="no"?>
<!-- Generator: Adobe Illustrator 16.0.0, SVG Export Plug-In . SVG Version: 6.00 Build 0)  -->

<svg
   xmlns:dc="http://purl.org/dc/elements/1.1/"
   xmlns:cc="http://creativecommons.org/ns#"
   xmlns:rdf="http://www.w3.org/1999/02/22-rdf-syntax-ns#"
   xmlns:svg="http://www.w3.org/2000/svg"
   xmlns="http://www.w3.org/2000/svg"
   xmlns:sodipodi="http://sodipodi.sourceforge.net/DTD/sodipodi-0.dtd"
   xmlns:inkscape="http://www.inkscape.org/namespaces/inkscape"
   version="1.1"
   id="Layer_1"
   x="0px"
   y="0px"
   width="512px"
   height="512px"
   viewBox="0 0 512 512"
   enable-background="new 0 0 512 512"
   xml:space="preserve"
   inkscape:version="0.48.4 r9939"
   sodipodi:docname="map.svg"><metadata
   id="metadata9"><rdf:RDF><cc:Work
       rdf:about=""><dc:format>image/svg+xml</dc:format><dc:type
         rdf:resource="http://purl.org/dc/dcmitype/StillImage" /></cc:Work></rdf:RDF></metadata><defs
   id="defs7" /><sodipodi:namedview
   pagecolor="#ffffff"
   bordercolor="#666666"
   borderopacity="1"
   objecttolerance="10"
   gridtolerance="10"
   guidetolerance="10"
   inkscape:pageopacity="0"
   inkscape:pageshadow="2"
   inkscape:window-width="640"
   inkscape:window-height="480"
   id="namedview5"
   showgrid="false"
   inkscape:zoom="0.4609375"
   inkscape:cx="256"
   inkscape:cy="312.84328"
   inkscape:window-x="0"
   inkscape:window-y="0"
   inkscape:window-maximized="0"
   inkscape:current-layer="Layer_1" />
<path
   d="M448,320h-64v-64h64V320z M336,80c0,11.938-2.625,23.281-7.313,33.438L256,256l-72.688-142.563  C178.625,103.281,176,91.938,176,80c0-44.188,35.813-80,80-80S336,35.813,336,80z M304,80c0-26.5-21.5-48-48-48s-48,21.5-48,48  s21.5,48,48,48S304,106.5,304,80z M512,128v320c0,35.344-28.656,64-64,64H64c-35.344,0-64-28.656-64-64V128  c0-35.344,28.656-64,64-64h81.625C144.875,69.25,144,74.5,144,80c0,5.406,1,10.688,1.75,16H128v96h59.438l16.313,32H128v128h192V224  h-11.781L352,138.125V192h128v-64c0-17.656-14.344-32-32-32h-81.719C367.063,90.688,368,85.438,368,80c0-5.5-0.844-10.75-1.625-16  H448C483.344,64,512,92.656,512,128z M96,384H32v64c0,17.656,14.375,32,32,32h32V384z M96,224H32v128h64V224z M96,96H64  c-17.625,0-32,14.344-32,32v64h64V96z M320,384H128v96h192V384z M480,384H352v96h96c17.656,0,32-14.344,32-32V384z M480,224H352v128  h128V224z"
   id="path3"
   style="fill:#ffffff" />
</svg>