<?xml version="1.0" encoding="UTF-8" standalone="no"?>
<svg
   xmlns:dc="http://purl.org/dc/elements/1.1/"
   xmlns:cc="http://creativecommons.org/ns#"
   xmlns:rdf="http://www.w3.org/1999/02/22-rdf-syntax-ns#"
   xmlns:svg="http://www.w3.org/2000/svg"
   xmlns="http://www.w3.org/2000/svg"
   xmlns:sodipodi="http://sodipodi.sourceforge.net/DTD/sodipodi-0.dtd"
   xmlns:inkscape="http://www.inkscape.org/namespaces/inkscape"
   width="64"
   height="64"
   viewBox="0 0 64 64"
   enable-background="new 0 0 64 64"
   id="svg2"
   version="1.1"
   inkscape:version="0.48.2 r9819"
   sodipodi:docname="trash.svg">
  <metadata
     id="metadata12">
    <rdf:RDF>
      <cc:Work
         rdf:about="">
        <dc:format>image/svg+xml</dc:format>
        <dc:type
           rdf:resource="http://purl.org/dc/dcmitype/StillImage" />
        <dc:title></dc:title>
      </cc:Work>
    </rdf:RDF>
  </metadata>
  <defs
     id="defs10" />
  <sodipodi:namedview
     pagecolor="#ffffff"
     bordercolor="#666666"
     borderopacity="1"
     objecttolerance="10"
     gridtolerance="10"
     guidetolerance="10"
     inkscape:pageopacity="0"
     inkscape:pageshadow="2"
     inkscape:window-width="640"
     inkscape:window-height="480"
     id="namedview8"
     showgrid="false"
     inkscape:zoom="3.6875"
     inkscape:cx="32"
     inkscape:cy="32"
     inkscape:window-x="258"
     inkscape:window-y="267"
     inkscape:window-maximized="0"
     inkscape:current-layer="svg2" />
  <path
     d="m42.772,8.409c-.553,0-1-.447-1-1v-1.75c0-2.757-2.243-5-5-5h-15.5c-2.757,0-5,2.243-5,5v1.75c0,.553-.448,1-1,1h-3.875c-2.761,0-5,2.238-5,5v4.75c0,.553 .448,1 1,1h43.25c.553,0 1-.447 1-1v-4.75c0-2.762-2.238-5-5-5h-3.875zm-21.5-3.75h15.5c.552,0 1,.448 1,1v1.75c0,.553-.447,1-1,1h-15.5c-.552,0-1-.447-1-1v-1.75c0-.552 .449-1 1-1z"
     id="path4"
     style="fill:#ffffff" />
  <path
     d="m10.648,22.659v32c0,2.762 2.239,5 5,5h26.75c2.762,0 5-2.238 5-5v-32c0-.553-.447-1-1-1h-34.75c-.553,0-1,.447-1,1zm10.249,30c0,1.104-.895,2-2,2-1.104,0-2-.896-2-2v-24.75c0-1.104 .896-2 2-2 1.105,0 2,.896 2,2v24.75zm10.125,0c0,1.104-.895,2-2,2-1.104,0-2-.896-2-2v-24.75c0-1.104 .896-2 2-2 1.105,0 2,.896 2,2v24.75zm10.125,0c0,1.104-.896,2-2,2s-2-.896-2-2v-24.75c0-1.104 .896-2 2-2s2,.896 2,2v24.75z"
     id="path6"
     style="fill:#ffffff" />
</svg>
