<?xml version="1.0" encoding="UTF-8" standalone="no"?>
<!-- Created with Inkscape (http://www.inkscape.org/) -->

<svg
   xmlns:dc="http://purl.org/dc/elements/1.1/"
   xmlns:cc="http://creativecommons.org/ns#"
   xmlns:rdf="http://www.w3.org/1999/02/22-rdf-syntax-ns#"
   xmlns:svg="http://www.w3.org/2000/svg"
   xmlns="http://www.w3.org/2000/svg"
   xmlns:sodipodi="http://sodipodi.sourceforge.net/DTD/sodipodi-0.dtd"
   xmlns:inkscape="http://www.inkscape.org/namespaces/inkscape"
   width="735.11151"
   height="457.22849"
   id="svg2984"
   version="1.1"
   inkscape:version="0.48.2 r9819"
   sodipodi:docname="video.svg">
  <defs
     id="defs2986" />
  <sodipodi:namedview
     id="base"
     pagecolor="#ffffff"
     bordercolor="#ffffff"
     borderopacity="0.0"
     inkscape:pageopacity="0.0"
     inkscape:pageshadow="0"
     inkscape:zoom="0.35"
     inkscape:cx="546.78919"
     inkscape:cy="98.586718"
     inkscape:document-units="px"
     inkscape:current-layer="layer1"
     showgrid="false"
     fit-margin-top="0"
     fit-margin-left="0"
     fit-margin-right="0"
     fit-margin-bottom="0"
     inkscape:window-width="830"
     inkscape:window-height="556"
     inkscape:window-x="78"
     inkscape:window-y="78"
     inkscape:window-maximized="0" />
  <metadata
     id="metadata2989">
    <rdf:RDF>
      <cc:Work
         rdf:about="">
        <dc:format>image/svg+xml</dc:format>
        <dc:type
           rdf:resource="http://purl.org/dc/dcmitype/StillImage" />
        <dc:title></dc:title>
      </cc:Work>
    </rdf:RDF>
  </metadata>
  <g
     inkscape:label="Layer 1"
     inkscape:groupmode="layer"
     id="layer1"
     transform="translate(196.78919,-173.7204)">
    <path
       inkscape:connector-curvature="0"
       id="path3042"
       d="m -31.895913,623.95919 c -153.511497,-11.9083 -157.143167,-15.5163 -163.273837,-162.2076 -5.48873,-131.33121 3.23752,-230.30895 22.18883,-251.6775 21.3041,-24.02144 70.15005,-30.16389 279.67059,-35.16902 196.21929,-4.68739 363.71449,4.88327 394.70369,22.55331 32.021,18.25833 37.4743,48.61574 36.8884,205.34947 -0.6248,167.14434 -5.3205,187.00671 -48.0654,203.31344 -60.4987,23.0797 -334.05733,32.4258 -522.112273,17.8379 z M 210.3721,466.16852 c 43.71296,-28.5123 79.66916,-57.41165 79.90266,-64.22078 0.2471,-7.20326 -35.2722,-35.3015 -84.94089,-67.19422 -66.41672,-42.64678 -87.8889,-52.90192 -96.73338,-46.2 -8.53789,6.4696 -11.367823,34.82776 -11.367823,113.91471 0,57.9154 2.52348,107.60475 5.607743,110.42077 12.3162,11.24512 31.32552,2.98594 107.53169,-46.72048 z"
       style="fill:#ffffff;fill-opacity:1" />
  </g>
</svg>
