<?xml version="1.0" encoding="UTF-8" standalone="no"?>
<!-- Generator: Adobe Illustrator 16.0.0, SVG Export Plug-In . SVG Version: 6.00 Build 0)  -->

<svg
   xmlns:dc="http://purl.org/dc/elements/1.1/"
   xmlns:cc="http://creativecommons.org/ns#"
   xmlns:rdf="http://www.w3.org/1999/02/22-rdf-syntax-ns#"
   xmlns:svg="http://www.w3.org/2000/svg"
   xmlns="http://www.w3.org/2000/svg"
   xmlns:sodipodi="http://sodipodi.sourceforge.net/DTD/sodipodi-0.dtd"
   xmlns:inkscape="http://www.inkscape.org/namespaces/inkscape"
   version="1.1"
   id="Capa_1"
   x="0px"
   y="0px"
   width="27.855px"
   height="24.437px"
   viewBox="0 0 27.855 24.437"
   style="enable-background:new 0 0 27.855 24.437;"
   xml:space="preserve"
   inkscape:version="0.48.2 r9819"
   sodipodi:docname="Flaticon_59.svg"><metadata
   id="metadata41"><rdf:RDF><cc:Work
       rdf:about=""><dc:format>image/svg+xml</dc:format><dc:type
         rdf:resource="http://purl.org/dc/dcmitype/StillImage" /><dc:title></dc:title></cc:Work></rdf:RDF></metadata><defs
   id="defs39" /><sodipodi:namedview
   pagecolor="#ffffff"
   bordercolor="#666666"
   borderopacity="1"
   objecttolerance="10"
   gridtolerance="10"
   guidetolerance="10"
   inkscape:pageopacity="0"
   inkscape:pageshadow="2"
   inkscape:window-width="640"
   inkscape:window-height="480"
   id="namedview37"
   showgrid="false"
   inkscape:zoom="9.6574865"
   inkscape:cx="13.9275"
   inkscape:cy="12.2185"
   inkscape:window-x="0"
   inkscape:window-y="0"
   inkscape:window-maximized="0"
   inkscape:current-layer="Capa_1" />
<path
   style="fill:#000000;"
   d="M27.604,5.041L14.176,18.47c-0.338,0.336-0.885,0.336-1.223,0l-0.27-0.27l0,0l-0.293-0.293  l-1.268-1.268l-0.018-0.027L5.297,10.76c-0.336-0.336-0.336-0.885,0-1.221l1.83-1.828c0.338-0.339,0.883-0.339,1.221,0l5.223,5.262  L24.551,1.99c0.338-0.337,0.885-0.337,1.221,0l1.832,1.832C27.939,4.157,27.939,4.705,27.604,5.041z"
   id="path3" />
<path
   style="fill:#000000;"
   d="M21.795,20.903c0,0.973-0.793,1.766-1.768,1.766H3.535c-0.975,0-1.768-0.793-1.768-1.766V3.531  c0-0.973,0.793-1.766,1.768-1.766h16.492c0.975,0,1.768,0.793,1.768,1.766l0,0l1.256-1.162C23.254,0.939,21.809,0,20.027,0H3.535  C1.582,0,0,1.58,0,3.531v17.372c0,1.951,1.582,3.533,3.535,3.533h16.492c1.953,0,3.535-1.582,3.535-3.533V10.547l-1.768,1.924  V20.903z"
   id="path5" />
<g
   id="g7">
</g>
<g
   id="g9">
</g>
<g
   id="g11">
</g>
<g
   id="g13">
</g>
<g
   id="g15">
</g>
<g
   id="g17">
</g>
<g
   id="g19">
</g>
<g
   id="g21">
</g>
<g
   id="g23">
</g>
<g
   id="g25">
</g>
<g
   id="g27">
</g>
<g
   id="g29">
</g>
<g
   id="g31">
</g>
<g
   id="g33">
</g>
<g
   id="g35">
</g>
</svg>