<?xml version="1.0" encoding="UTF-8" standalone="no"?>
<!-- Generator: Adobe Illustrator 16.0.0, SVG Export Plug-In . SVG Version: 6.00 Build 0)  -->

<svg
   xmlns:dc="http://purl.org/dc/elements/1.1/"
   xmlns:cc="http://creativecommons.org/ns#"
   xmlns:rdf="http://www.w3.org/1999/02/22-rdf-syntax-ns#"
   xmlns:svg="http://www.w3.org/2000/svg"
   xmlns="http://www.w3.org/2000/svg"
   xmlns:sodipodi="http://sodipodi.sourceforge.net/DTD/sodipodi-0.dtd"
   xmlns:inkscape="http://www.inkscape.org/namespaces/inkscape"
   version="1.1"
   id="Layer_1"
   x="0px"
   y="0px"
   width="822.90668"
   height="562.85992"
   viewBox="0 0 822.90668 562.85992"
   enable-background="new 0 0 512 512"
   xml:space="preserve"
   inkscape:version="0.91 r13725"
   sodipodi:docname="class.svg"><metadata
     id="metadata23"><rdf:RDF><cc:Work
         rdf:about=""><dc:format>image/svg+xml</dc:format><dc:type
           rdf:resource="http://purl.org/dc/dcmitype/StillImage" /><dc:title></dc:title></cc:Work></rdf:RDF></metadata><defs
     id="defs21" /><sodipodi:namedview
     pagecolor="#ffffff"
     bordercolor="#666666"
     borderopacity="1"
     objecttolerance="10"
     gridtolerance="10"
     guidetolerance="10"
     inkscape:pageopacity="0"
     inkscape:pageshadow="2"
     inkscape:window-width="864"
     inkscape:window-height="480"
     id="namedview19"
     showgrid="false"
     inkscape:zoom="0.4609375"
     inkscape:cx="349.28814"
     inkscape:cy="303.72881"
     inkscape:window-x="532"
     inkscape:window-y="239"
     inkscape:window-maximized="0"
     inkscape:current-layer="Layer_1"
     fit-margin-top="0"
     fit-margin-left="0"
     fit-margin-right="0"
     fit-margin-bottom="0" /><path
     style="fill:#000000"
     d="m 517.59829,278.71767 102.70806,-4.33898 c -14.74386,-36.43499 -36.7719,-67.09835 -63.56138,-88.70973 -24.2949,38.243 -44.72841,44.85659 -69.14774,44.85659 30.00106,48.19212 15.0884,26.3834 30.00106,48.19212 z"
     id="path11-8"
     inkscape:connector-curvature="0"
     sodipodi:nodetypes="ccccc" /><path
     style="fill:#000000"
     d="M 463.73242,6.952256 A 97.800247,100.10706 0 0 0 418.83008,18.163194 140.95348,144.07346 0 0 1 486.98828,141.32921 140.95348,144.07346 0 0 1 471.42383,206.8214 97.800247,100.10706 0 0 0 561.5332,107.05968 97.800247,100.10706 0 0 0 463.73242,6.952256 Z"
     id="circle13-8"
     inkscape:connector-curvature="0" /><path
     style="fill:#000000;fill-opacity:1;stroke:none;stroke-width:5.17600012;stroke-miterlimit:4;stroke-dasharray:none;stroke-opacity:1"
     d="m 529.35591,291.15425 259.62651,0 0,38.80597 -246.60956,0 z"
     id="rect3334-1"
     inkscape:connector-curvature="0"
     sodipodi:nodetypes="ccccc" /><path
     style="fill:#000000"
     d="m 242.11041,231.80882 c -31.18169,25.15462 -56.82086,60.84532 -73.98243,103.25391 l 364.49024,0 c -17.16116,-42.40859 -42.80075,-78.09929 -73.98242,-103.25391 -25.75293,31.88711 -64.68768,52.21094 -108.26172,52.21094 -43.57401,0 -82.51227,-20.32383 -108.26367,-52.21094 z"
     id="path11"
     inkscape:connector-curvature="0" /><ellipse
     id="circle13"
     cy="140.31195"
     cx="350.37439"
     style="fill:#000000"
     rx="113.83483"
     ry="116.51985" /><rect
     style="fill:#000000;fill-opacity:1;stroke:none;stroke-width:5.17600012;stroke-miterlimit:4;stroke-dasharray:none;stroke-opacity:1"
     id="rect3334"
     width="728.94916"
     height="32.542374"
     x="0"
     y="354.58871" /><rect
     style="fill:#000000;fill-opacity:1;stroke:none;stroke-width:5.17600012;stroke-miterlimit:4;stroke-dasharray:none;stroke-opacity:1"
     id="rect3339"
     width="598.77966"
     height="186.57628"
     x="71.593224"
     y="376.28363" /><path
     style="fill:#000000"
     d="m 606.61478,215.1805 81.03678,-3.43555 c -11.63292,-28.84877 -29.01308,-53.12765 -50.15001,-70.23927 -19.1687,30.28034 -35.29076,35.51689 -54.55765,35.51689 23.67088,38.15793 11.90477,20.89005 23.67088,38.15793 z"
     id="path11-8-9"
     inkscape:connector-curvature="0"
     sodipodi:nodetypes="ccccc" /><path
     inkscape:connector-curvature="0"
     style="fill:#000000"
     d="m 564.11454,0 a 77.164513,79.263537 0 0 0 -35.428,8.876688 111.21247,114.07559 0 0 1 53.7769,97.521322 111.21247,114.07559 0 0 1 -12.28037,51.85591 77.164513,79.263537 0 0 0 71.09641,-78.9901 A 77.164513,79.263537 0 0 0 564.11454,0 Z"
     id="circle13-8-6" /><path
     style="fill:#000000;fill-opacity:1;stroke:none;stroke-width:5.17600012;stroke-miterlimit:4;stroke-dasharray:none;stroke-opacity:1"
     d="m 618.06104,235.8751 204.84563,0 0,30.72608 -194.57524,0 z"
     id="rect3334-1-9"
     inkscape:connector-curvature="0"
     sodipodi:nodetypes="ccccc" /></svg>