<?xml version="1.0" encoding="UTF-8" standalone="no"?>
<svg
   xmlns:dc="http://purl.org/dc/elements/1.1/"
   xmlns:cc="http://creativecommons.org/ns#"
   xmlns:rdf="http://www.w3.org/1999/02/22-rdf-syntax-ns#"
   xmlns:svg="http://www.w3.org/2000/svg"
   xmlns="http://www.w3.org/2000/svg"
   xmlns:sodipodi="http://sodipodi.sourceforge.net/DTD/sodipodi-0.dtd"
   xmlns:inkscape="http://www.inkscape.org/namespaces/inkscape"
   height="16px"
   version="1.1"
   viewBox="0 0 16 16"
   width="16px"
   id="svg2"
   inkscape:version="0.48.4 r9939"
   sodipodi:docname="gear.svg">
  <metadata
     id="metadata13">
    <rdf:RDF>
      <cc:Work
         rdf:about="">
        <dc:format>image/svg+xml</dc:format>
        <dc:type
           rdf:resource="http://purl.org/dc/dcmitype/StillImage" />
      </cc:Work>
    </rdf:RDF>
  </metadata>
  <sodipodi:namedview
     pagecolor="#ffffff"
     bordercolor="#666666"
     borderopacity="1"
     objecttolerance="10"
     gridtolerance="10"
     guidetolerance="10"
     inkscape:pageopacity="0"
     inkscape:pageshadow="2"
     inkscape:window-width="1199"
     inkscape:window-height="766"
     id="namedview11"
     showgrid="false"
     inkscape:zoom="20.85965"
     inkscape:cx="16.982755"
     inkscape:cy="6.5848144"
     inkscape:window-x="0"
     inkscape:window-y="0"
     inkscape:window-maximized="0"
     inkscape:current-layer="svg2" />
  <title
     id="title4" />
  <defs
     id="defs6" />
  <path
     sodipodi:type="arc"
     style="fill:#ffffff;fill-opacity:1;stroke:none"
     id="path2990"
     sodipodi:cx="8.1355934"
     sodipodi:cy="8.5084743"
     sodipodi:rx="5.0169492"
     sodipodi:ry="5.0169492"
     d="m 13.152543,8.5084743 a 5.0169492,5.0169492 0 1 1 -10.0338988,0 5.0169492,5.0169492 0 1 1 10.0338988,0 z"
     transform="matrix(1.0202703,0,0,1.0202703,-0.30050433,-0.68094368)" />
  <path
     inkscape:connector-curvature="0"
     id="path2999"
     d="M 3.6658409,15.410144 C 3.3330185,15.281061 3.0484978,15.138815 3.0335736,15.094043 c -0.014927,-0.04477 0.0252,-0.261423 0.089159,-0.481445 0.063963,-0.220021 0.097571,-0.459032 0.074686,-0.531134 -0.068366,-0.215392 -0.7309999,-0.790779 -0.9111383,-0.791168 -0.090332,-2.15e-4 -0.3134237,0.05311 -0.4957602,0.118459 -0.1823364,0.06535 -0.3847476,0.09839 -0.4498013,0.07343 -0.1270556,-0.04876 -0.61548349,-1.003747 -0.61548349,-1.203414 0,-0.07128 0.15969935,-0.210666 0.39082969,-0.341108 C 1.606313,11.66098 1.6793006,11.525171 1.6431206,10.956969 1.6095807,10.430201 1.4989075,10.271625 1.0434073,10.097669 0.87347679,10.032774 0.71762956,9.9358583 0.69707912,9.8823041 0.64429579,9.7447583 1.094205,8.574178 1.2181285,8.5266237 1.2745118,8.5049872 1.4783363,8.5396589 1.6710662,8.603674 2.1315149,8.7566106 2.2846988,8.707807 2.6839484,8.2809767 3.0467539,7.8931081 3.0836772,7.7362139 2.9099835,7.3205051 2.69642,6.8093765 2.8107234,6.6569352 3.6425615,6.3434964 4.0812657,6.1781917 4.1899507,6.2036266 4.3128632,6.500363 4.3628148,6.6209575 4.4814504,6.8120453 4.5764975,6.9250024 4.7354251,7.1138766 4.7883128,7.130379 5.2347006,7.130379 c 0.5842521,0 0.7909885,-0.1293435 0.9744136,-0.6096343 C 6.3570836,6.1332906 6.4433551,6.1206087 7.1455961,6.3830815 7.8204803,6.6353295 7.8427668,6.6635131 7.7109579,7.098039 7.5421108,7.654664 7.5646072,7.7427853 7.9756351,8.1348236 8.3876757,8.5278267 8.5310014,8.5615464 9.0344398,8.3839228 9.4590081,8.2341264 9.5041251,8.2440373 9.6779475,8.5252889 9.8747359,8.8436993 10.104558,9.4938182 10.060717,9.6080664 10.042164,9.6564209 9.9283131,9.7368503 9.8077182,9.786802 9.6871237,9.8367536 9.4960358,9.9553901 9.3830783,10.050437 c -0.1891627,0.15917 -0.2053758,0.211432 -0.2053758,0.662004 0,0.269055 0.020176,0.541763 0.044832,0.606016 0.024656,0.06426 0.2341771,0.212407 0.4656018,0.329229 0.4892607,0.246978 0.4965767,0.276998 0.2368667,0.971849 C 9.6669617,13.309919 9.6389047,13.330773 9.1567263,13.1906 8.9394531,13.12744 8.7244236,13.075757 8.6788826,13.075757 c -0.04554,0 -0.2581591,0.165846 -0.472485,0.368547 -0.4366487,0.412963 -0.4774232,0.578832 -0.2735366,1.112703 0.063877,0.167269 0.096556,0.35518 0.072614,0.417578 -0.053241,0.138742 -0.8863248,0.538074 -1.1640848,0.557996 -0.173345,0.01243 -0.2285413,-0.0351 -0.3955279,-0.34066 -0.2563384,-0.46905 -0.3697233,-0.540279 -0.860029,-0.540279 -0.5627865,0 -0.7098373,0.08522 -0.9581633,0.555269 -0.1173855,0.222198 -0.2456626,0.411632 -0.2850602,0.420963 -0.039393,0.0093 -0.3439403,-0.08865 -0.6767636,-0.21773 z M 6.194727,12.022929 C 7.014508,11.443657 6.9404689,10.139018 6.0617508,9.6797668 5.6186152,9.4481685 5.0413422,9.4762013 4.6496975,9.7483402 3.743904,10.377735 3.8491615,11.682327 4.844022,12.156861 c 0.4026572,0.192061 0.9688115,0.135925 1.350705,-0.133928 z m 4.821505,-3.4360522 c -0.02626,-0.026264 -0.04775,-0.1692191 -0.04775,-0.3176767 0,-0.4465624 -0.108941,-0.6277833 -0.470578,-0.7827994 C 10.035498,7.2881904 9.8007693,7.305735 9.5109894,7.5601653 9.3763772,7.6783566 9.2210419,7.7750585 9.1658016,7.7750585 9.031426,7.7750585 8.3173541,7.0465598 8.3210439,6.9132333 8.3226842,6.8553762 8.4193466,6.6964377 8.535937,6.5600361 8.7899367,6.2628764 8.8015293,6.0492373 8.5867519,5.6236401 8.4050699,5.2636276 8.190018,5.1273073 7.8013301,5.1257649 7.4688331,5.124444 7.3869309,4.9897445 7.3869309,4.4442136 c 0,-0.5630742 0.078027,-0.6804952 0.4521841,-0.6804952 0.3886335,0 0.6000206,-0.1510818 0.7716709,-0.5515241 C 8.7977437,2.7760372 8.7863228,2.6860904 8.4979086,2.3232699 8.3604,2.1502879 8.2475815,1.9826521 8.2471999,1.9507459 8.2458186,1.8382233 8.9851512,1.1133688 9.1012659,1.1133688 c 0.064723,0 0.2292708,0.095392 0.3656718,0.2119821 0.2826575,0.2416033 0.5052064,0.2670759 0.9018433,0.1032243 0.409558,-0.16919 0.52794,-0.3023108 0.529051,-0.59492485 0.0018,-0.48359474 0.05697,-0.56902448 0.400493,-0.62053873 0.173162,-0.0259686 0.45778,-0.0257787 0.632485,4.213e-4 l 0.317646,0.0476379 0.04935,0.40819281 c 0.05897,0.48776203 0.11415,0.56630773 0.520105,0.74032063 0.43968,0.1884681 0.602481,0.1682541 0.944188,-0.1172338 0.165043,-0.1378898 0.315538,-0.2507087 0.334434,-0.2507087 0.06794,0 0.883294,0.8113185 0.883294,0.8789279 0,0.038048 -0.09624,0.1787858 -0.213858,0.3127499 -0.304724,0.3470612 -0.32458,0.5113049 -0.118222,0.9779172 0.187186,0.4232606 0.175213,0.415586 0.833497,0.5342483 l 0.32234,0.058105 0.02082,0.5895478 c 0.02039,0.5774438 0.01698,0.5910046 -0.165834,0.6605113 -0.102656,0.03903 -0.29175,0.070964 -0.420207,0.070964 -0.263142,0 -0.467695,0.1851414 -0.614049,0.5557771 -0.143024,0.3622047 -0.111168,0.5742404 0.13167,0.8764202 0.123116,0.1532013 0.223847,0.3218316 0.223847,0.3747339 0,0.1179949 -0.723709,0.8434185 -0.841426,0.8434185 -0.04664,0 -0.190676,-0.092353 -0.320086,-0.2052287 -0.34591,-0.3017081 -0.49763,-0.3259868 -0.91503,-0.1464256 -0.433647,0.1865495 -0.573812,0.3623973 -0.573812,0.7198894 0,0.4745179 -0.02315,0.4913376 -0.67622,0.4913376 -0.324094,0 -0.610752,-0.021489 -0.637017,-0.047754 z m 1.237005,-2.9492589 c 0.135359,-0.065416 0.343928,-0.241633 0.463488,-0.3915927 0.18381,-0.2305479 0.221262,-0.3467 0.242505,-0.7521263 0.02244,-0.4281614 0.0035,-0.5122988 -0.176564,-0.7862214 -0.234217,-0.3562219 -0.773778,-0.6611188 -1.165664,-0.658697 -0.552685,0.00342 -1.114961,0.4253684 -1.295405,0.9721206 -0.186238,0.5643054 0.09799,1.3214181 0.592853,1.5791953 0.492248,0.2564168 0.863991,0.2667799 1.338787,0.037321 z"
     style="fill:#010101" />
</svg>
