<?xml version="1.0" encoding="UTF-8" standalone="no"?>
<!-- Created with Inkscape (http://www.inkscape.org/) -->

<svg
   xmlns:dc="http://purl.org/dc/elements/1.1/"
   xmlns:cc="http://creativecommons.org/ns#"
   xmlns:rdf="http://www.w3.org/1999/02/22-rdf-syntax-ns#"
   xmlns:svg="http://www.w3.org/2000/svg"
   xmlns="http://www.w3.org/2000/svg"
   xmlns:sodipodi="http://sodipodi.sourceforge.net/DTD/sodipodi-0.dtd"
   xmlns:inkscape="http://www.inkscape.org/namespaces/inkscape"
   width="85.375"
   height="53.79871"
   id="svg2"
   inkscape:label="Pozadí"
   version="1.1"
   inkscape:version="0.48.4 r9939"
   sodipodi:docname="Nový dokument 1">
  <defs
     id="defs3" />
  <sodipodi:namedview
     id="base"
     pagecolor="#ffffff"
     bordercolor="#666666"
     borderopacity="1.0"
     inkscape:pageopacity="0.0"
     inkscape:pageshadow="2"
     inkscape:zoom="3.959798"
     inkscape:cx="48.989478"
     inkscape:cy="23.99177"
     inkscape:document-units="px"
     inkscape:current-layer="layer1"
     showgrid="false"
     fit-margin-top="0"
     fit-margin-left="0"
     fit-margin-right="0"
     fit-margin-bottom="0"
     inkscape:window-width="1154"
     inkscape:window-height="683"
     inkscape:window-x="252"
     inkscape:window-y="213"
     inkscape:window-maximized="0" />
  <metadata
     id="metadata6">
    <rdf:RDF>
      <cc:Work
         rdf:about="">
        <dc:format>image/svg+xml</dc:format>
        <dc:type
           rdf:resource="http://purl.org/dc/dcmitype/StillImage" />
        <dc:title></dc:title>
      </cc:Work>
    </rdf:RDF>
  </metadata>
  <g
     inkscape:label="Vrstva 1"
     inkscape:groupmode="layer"
     id="layer1"
     transform="translate(-155.8125,-255.34375)">
    <g
       id="g3013">
      <path
         id="rect2995"
         d="M 198.75,255.34375 155.8125,271.5 l 17.15625,6.5 16.40625,-6.28125 1.75,1.875 L 176.3125,279.25 199.25,287.9375 241.1875,271.5 198.75,255.34375 z"
         style="fill:#000000;fill-opacity:1;stroke:none"
         inkscape:connector-curvature="0" />
      <path
         sodipodi:nodetypes="ccccccc"
         inkscape:connector-curvature="0"
         id="rect2998"
         d="m 170.2107,280.85819 28.78935,10.35406 28.28427,-10.6066 2.52538,13.8896 c 0,0 -19.67267,4.76337 -30.30458,14.64721 -12.39967,-9.05653 -31.31473,-14.89975 -31.31473,-14.89975 z"
         style="fill:#000000;fill-opacity:1;stroke:none" />
      <path
         id="path3001"
         d="m 197.78125,265.78125 -33.625,12.5 c -0.73825,-0.74376 -1.81412,-1.21875 -3.03125,-1.21875 -2.23157,0 -4.03125,1.57863 -4.03125,3.53125 0,1.69931 1.36114,3.1291 3.1875,3.46875 l -2.4375,18 7.8125,0 c -1.81458,-8.31047 -1.53414,-11.26404 -3.03125,-18.15625 1.3814,-0.48674 2.36758,-1.64331 2.5,-3 l 33.625,-12.5 -0.96875,-2.625 z"
         style="fill:#000000;fill-opacity:1;stroke:none"
         inkscape:connector-curvature="0" />
    </g>
  </g>
</svg>
