<?xml version="1.0" encoding="UTF-8" standalone="no"?>
<!-- Created with Inkscape (http://www.inkscape.org/) -->

<svg
   xmlns:dc="http://purl.org/dc/elements/1.1/"
   xmlns:cc="http://creativecommons.org/ns#"
   xmlns:rdf="http://www.w3.org/1999/02/22-rdf-syntax-ns#"
   xmlns:svg="http://www.w3.org/2000/svg"
   xmlns="http://www.w3.org/2000/svg"
   xmlns:sodipodi="http://sodipodi.sourceforge.net/DTD/sodipodi-0.dtd"
   xmlns:inkscape="http://www.inkscape.org/namespaces/inkscape"
   width="403.85922"
   height="195.23618"
   id="svg2"
   inkscape:label="Pozadí"
   version="1.1"
   inkscape:version="0.48.4 r9939"
   sodipodi:docname="key.svg">
  <defs
     id="defs3" />
  <sodipodi:namedview
     id="base"
     pagecolor="#ffffff"
     bordercolor="#666666"
     borderopacity="1.0"
     inkscape:pageopacity="0.0"
     inkscape:pageshadow="2"
     inkscape:zoom="0.35"
     inkscape:cx="162.22944"
     inkscape:cy="221.84275"
     inkscape:document-units="px"
     inkscape:current-layer="layer1"
     showgrid="false"
     fit-margin-top="0"
     fit-margin-left="0"
     fit-margin-right="0"
     fit-margin-bottom="0"
     inkscape:window-width="970"
     inkscape:window-height="425"
     inkscape:window-x="182"
     inkscape:window-y="182"
     inkscape:window-maximized="0" />
  <metadata
     id="metadata6">
    <rdf:RDF>
      <cc:Work
         rdf:about="">
        <dc:format>image/svg+xml</dc:format>
        <dc:type
           rdf:resource="http://purl.org/dc/dcmitype/StillImage" />
        <dc:title></dc:title>
      </cc:Work>
    </rdf:RDF>
  </metadata>
  <g
     inkscape:label="Vrstva 1"
     inkscape:groupmode="layer"
     id="layer1"
     transform="translate(-212.77056,-558.96875)">
    <path
       style="fill:#000000;fill-opacity:1;stroke:none"
       d="m 308.71875,558.96875 c -72.9413,0 -117.95986,74.76401 -84.9375,141.03125 11.5132,23.10398 30.06637,38.50934 58.6875,48.71875 20.5381,7.32611 28.75746,7.33481 53.65625,-0.0937 27.89659,-8.32273 48.52131,-26.50507 61.6875,-54.3125 l 11,-23.21875 53.15625,1.1875 53.15625,1.15625 2.09375,25.03125 c 1.94583,23.35 2.77083,25 12.5,25 9.72916,0 10.55417,-1.65 12.5,-25 l 2.09375,-25.03125 20.84375,0 20.84375,0 2.09375,33.34375 2.09375,33.375 12.5,0 12.5,0 1.21875,-43.1875 c 0.7808,-28.25432 -0.4947,-45.1593 -3.65625,-48.96875 -3.88686,-4.68334 -24.23923,-5.84375 -104.1875,-5.84375 l -99.375,0 -8.75,-19.78125 C 382.56997,581.92224 349.36617,558.9688 308.71875,558.9688 z m -2.625,34.0625 c 2.56724,-0.0503 5.20328,0.014 7.90625,0.1875 20.61338,1.32299 26.07263,3.55251 38.625,15.71875 8.04537,7.79787 16.56886,21.28835 18.90625,29.96875 8.71721,32.37326 -12.53586,69.0705 -45.25,78.15625 -17.68449,4.91154 -19.25988,4.89488 -36.40625,-0.0937 -6.93735,-2.01837 -19.02281,-10.27459 -26.84375,-18.34375 -12.2116,-12.59917 -14.42599,-18.0583 -15.75,-38.6875 -2.60221,-40.54458 20.30395,-66.15113 58.8125,-66.90625 z"
       id="rect3021"
       inkscape:connector-curvature="0"
       sodipodi:nodetypes="sssscccccscccccccccssccssssssssss" />
  </g>
</svg>
