<?xml version="1.0" encoding="UTF-8" standalone="no"?>
<!-- Created with Inkscape (http://www.inkscape.org/) -->

<svg
   xmlns:dc="http://purl.org/dc/elements/1.1/"
   xmlns:cc="http://creativecommons.org/ns#"
   xmlns:rdf="http://www.w3.org/1999/02/22-rdf-syntax-ns#"
   xmlns:svg="http://www.w3.org/2000/svg"
   xmlns="http://www.w3.org/2000/svg"
   xmlns:sodipodi="http://sodipodi.sourceforge.net/DTD/sodipodi-0.dtd"
   xmlns:inkscape="http://www.inkscape.org/namespaces/inkscape"
   width="160.401"
   height="181.10709"
   id="svg2"
   inkscape:label="Pozadí"
   version="1.1"
   inkscape:version="0.48.4 r9939"
   sodipodi:docname="lightbulb.svg">
  <defs
     id="defs3" />
  <sodipodi:namedview
     id="base"
     pagecolor="#ffffff"
     bordercolor="#666666"
     borderopacity="1.0"
     inkscape:pageopacity="0.0"
     inkscape:pageshadow="2"
     inkscape:zoom="0.7"
     inkscape:cx="49.073017"
     inkscape:cy="110.44226"
     inkscape:document-units="px"
     inkscape:current-layer="layer1"
     showgrid="false"
     fit-margin-top="0"
     fit-margin-left="0"
     fit-margin-right="0"
     fit-margin-bottom="0"
     inkscape:window-width="995"
     inkscape:window-height="622"
     inkscape:window-x="104"
     inkscape:window-y="104"
     inkscape:window-maximized="0" />
  <metadata
     id="metadata6">
    <rdf:RDF>
      <cc:Work
         rdf:about="">
        <dc:format>image/svg+xml</dc:format>
        <dc:type
           rdf:resource="http://purl.org/dc/dcmitype/StillImage" />
        <dc:title />
      </cc:Work>
    </rdf:RDF>
  </metadata>
  <g
     inkscape:label="Vrstva 1"
     inkscape:groupmode="layer"
     id="layer1"
     transform="translate(-322.45616,-390.32652)">
    <path
       inkscape:connector-curvature="0"
       id="path2997"
       d="m 393.36832,567.82472 c -2.19703,-1.98489 -3.74677,-4.00989 -3.44387,-4.5 0.30291,-0.49012 6.14919,-0.89112 12.99173,-0.89112 14.11783,0 15.09633,0.66563 8.71314,5.9272 -3.11785,2.56999 -4.59008,3.0728 -8.99712,3.0728 -4.64773,0 -5.74047,-0.4257 -9.26388,-3.60888 z m -9.01116,-12.39112 c -0.76049,-1.42099 -0.76049,-2.57901 0,-4 1.00552,-1.87883 2.09382,-2 17.96376,-2 14.02429,0 17.16027,0.26688 18.46481,1.57143 1.85909,1.85909 1.87504,1.99275 0.53625,4.49431 -0.96267,1.79877 -2.25611,1.93426 -18.46482,1.93426 -16.40618,0 -17.49248,-0.11744 -18.5,-2 z m 0.75,-12.0801 c -2.72663,-1.58811 -2.23399,-5.78539 0.8151,-6.94465 1.4108,-0.53639 9.03151,-0.97525 16.9349,-0.97525 7.90339,0 15.5241,0.43886 16.9349,0.97525 3.15608,1.19994 3.53819,5.4336 0.63084,6.98957 -2.51651,1.34679 -32.99287,1.30803 -35.31574,-0.0449 z m -4.19798,-14.1699 c -0.21187,-0.6875 -1.30514,-4.4 -2.42949,-8.25 -1.12435,-3.85 -5.02441,-12.175 -8.66681,-18.5 -11.7483,-20.40087 -14.56011,-30.23097 -12.46175,-43.56636 2.98899,-18.99551 15.45955,-31.87854 34.83236,-35.98448 8.40076,-1.78048 12.94658,-1.78048 21.34734,0 27.78898,5.88968 41.99944,32.13433 32.29403,59.64238 -1.39148,3.94387 -3.89622,8.8163 -14.34676,27.90846 -1.95686,3.575 -4.27564,9.425 -5.15284,13 l -1.5949,6.5 -4.02307,0.29951 c -5.68878,0.42351 -6.60738,-1.04059 -5.25225,-8.37118 1.31075,-7.09047 4.72075,-14.81573 12.11947,-27.45627 8.3178,-14.21077 10.12682,-20.00349 9.58544,-30.69376 -0.32511,-6.41971 -1.03187,-9.91307 -2.63045,-13.00174 -12.37771,-23.91541 -51.17478,-23.75282 -63.45369,0.26591 -2.54213,4.97265 -3.86097,14.4437 -2.78767,20.01914 1.52139,7.9031 3.50057,12.54399 10.52239,24.67356 7.15635,12.36195 10.13113,19.30094 11.60407,27.06773 0.66433,3.50297 0.61128,5.39134 -0.17818,6.34258 -1.42258,1.71411 -8.80572,1.79684 -9.32724,0.10452 z m -49.73442,-26.18854 c -1.37982,-2.84009 -1.85817,-4.89758 -1.26711,-5.45019 1.06904,-0.99951 17.1252,-8.11127 18.31273,-8.11127 0.95107,0 4.13678,6.54862 4.13678,8.50365 0,0.8118 -3.25249,2.93853 -7.48396,4.89359 -11.66996,5.39185 -11.16162,5.38576 -13.69844,0.16422 z m 130.4324,0.69316 c -4.5375,-1.94496 -8.25,-4.09296 -8.25,-4.77334 0,-2.52558 3.07282,-8.48128 4.37588,-8.48128 1.95924,0 15.90953,5.87008 17.33052,7.29244 0.94195,0.94285 0.78826,2.13921 -0.7011,5.45756 -1.04914,2.3375 -2.49202,4.20296 -3.20641,4.14546 -0.71439,-0.0575 -5.01139,-1.69587 -9.54889,-3.64084 z M 322.77219,468.07278 c -0.30156,-0.78587 -0.40581,-3.16368 -0.23167,-5.28402 l 0.31664,-3.85516 9.85242,-0.28745 c 11.62283,-0.3391 12.8805,0.28746 12.44709,6.20098 l -0.29951,4.08647 -10.76833,0.28402 c -8.60184,0.22687 -10.87865,-0.003 -11.31664,-1.14484 z m 138.28345,0.72597 c -1.25071,-1.25072 -0.73553,-8.08952 0.6991,-9.28015 0.90865,-0.75411 4.8444,-1.05933 11.25,-0.87245 l 9.85242,0.28745 0,5 0,5 -10.55152,0.28182 c -5.80333,0.155 -10.86583,-0.0325 -11.25,-0.41667 z M 340.09966,434.82189 c -4.25838,-3.08643 -7.7425,-6.27947 -7.7425,-7.09563 0,-2.21177 3.91645,-7.29266 5.62132,-7.29266 1.65944,0 16.37868,10.582 16.37868,11.77501 0,1.16329 -4.97415,8.22499 -5.79356,8.22499 -0.39679,0 -4.20557,-2.52527 -8.46394,-5.61171 z m 113.84376,1.95346 c -1.42244,-2.09331 -2.58626,-4.14834 -2.58626,-4.56674 0,-1.19301 14.71924,-11.77501 16.37868,-11.77501 1.7006,0 5.62132,5.07865 5.62132,7.2815 0,1.31775 -12.3522,11.14895 -15.54929,12.37579 -0.70672,0.27119 -2.4345,-1.21118 -3.86445,-3.31554 z M 364.44755,410.9807 c -2.24972,-4.09909 -4.09039,-8.1557 -4.09039,-9.01469 0,-1.78588 5.80518,-5.68447 7.88142,-5.29292 0.75979,0.14328 3.37086,3.94077 5.80239,8.43886 l 4.42096,8.17835 -3.78452,2.57165 c -2.08148,1.41441 -4.31438,2.57165 -4.962,2.57165 -0.64761,0 -3.01815,-3.3538 -5.26786,-7.4529 z m 66.58936,4.88125 -3.78453,-2.57165 4.42097,-8.17835 c 2.43153,-4.49809 5.0426,-8.29558 5.80239,-8.43886 2.07623,-0.39155 7.88142,3.50704 7.88142,5.29292 0,2.36787 -8.01263,16.46759 -9.35825,16.46759 -0.64762,0 -2.88052,-1.15724 -4.962,-2.57165 z m -32.55823,-6.78192 c -0.78634,-0.9475 -1.104,-4.35499 -0.91353,-9.79951 l 0.29201,-8.34692 5.28686,-0.30354 5.28686,-0.30354 -0.28686,9.80354 -0.28686,9.80354 -4.08647,0.29951 c -2.66025,0.19497 -4.50721,-0.20746 -5.29201,-1.15308 z"
       style="fill:#1b1b1b" />
  </g>
</svg>
