<?xml version="1.0" encoding="UTF-8" standalone="no"?>
<!-- Created with Inkscape (http://www.inkscape.org/) -->

<svg
   xmlns:dc="http://purl.org/dc/elements/1.1/"
   xmlns:cc="http://creativecommons.org/ns#"
   xmlns:rdf="http://www.w3.org/1999/02/22-rdf-syntax-ns#"
   xmlns:svg="http://www.w3.org/2000/svg"
   xmlns="http://www.w3.org/2000/svg"
   xmlns:sodipodi="http://sodipodi.sourceforge.net/DTD/sodipodi-0.dtd"
   xmlns:inkscape="http://www.inkscape.org/namespaces/inkscape"
   id="svg2992"
   version="1.1"
   inkscape:version="0.48.2 r9819"
   width="720.65625"
   height="719.375"
   xml:space="preserve"
   sodipodi:docname="spsse.svg"><metadata
     id="metadata2998"><rdf:RDF><cc:Work
         rdf:about=""><dc:format>image/svg+xml</dc:format><dc:type
           rdf:resource="http://purl.org/dc/dcmitype/StillImage" /></cc:Work></rdf:RDF></metadata><defs
     id="defs2996"><clipPath
       clipPathUnits="userSpaceOnUse"
       id="clipPath3006"><path
         d="M 0,600 800,600 800,0 0,0 0,600 z"
         id="path3008"
         inkscape:connector-curvature="0" /></clipPath></defs><sodipodi:namedview
     pagecolor="#ffffff"
     bordercolor="#666666"
     borderopacity="1"
     objecttolerance="10"
     gridtolerance="10"
     guidetolerance="10"
     inkscape:pageopacity="0"
     inkscape:pageshadow="2"
     inkscape:window-width="1402"
     inkscape:window-height="814"
     id="namedview2994"
     showgrid="false"
     fit-margin-top="0"
     fit-margin-left="0"
     fit-margin-right="0"
     fit-margin-bottom="0"
     inkscape:zoom="0.31466667"
     inkscape:cx="-611.89662"
     inkscape:cy="239.08468"
     inkscape:window-x="0"
     inkscape:window-y="0"
     inkscape:window-maximized="0"
     inkscape:current-layer="g3000" /><g
     id="g3000"
     inkscape:groupmode="layer"
     inkscape:label="logospsse"
     transform="matrix(1.25,0,0,-1.25,-1111.8966,855.29032)"><g
       id="g3018"
       transform="translate(1148.9243,580.98126)"
       style="fill:#000000"><path
         d="m 0,0 c -12.986,-0.484 -24.128,-14.776 -33.215,-50.951 -11.565,-46.043 -18.598,-75.269 -29.344,-118.062 -6.3,-25.089 -32.077,-34.346 -56.249,-34.381 -49.113,-0.071 -138.636,0.99 -140.049,1.005 9.257,-150.582 134.531,-269.86 287.712,-269.86 153.647,0 279.213,119.998 287.791,271.228 -3.352,-0.002 -70.829,-0.038 -105.166,0.297 -17.736,0.174 -30.199,-16.71 -39.176,-51.232 -9.311,-35.798 -8.283,-40.615 -17.938,-77.102 -9.655,-36.485 -17.979,-60.286 -26.181,-60.609 -8.581,-0.339 -16.933,25.457 -27.104,65.679 C 88.879,-275.734 56.502,-133.569 38.082,-56.6 28.082,-21.492 16.099,-0.45 1.274,0 0.851,0.013 0.418,0.016 0,0 m 28.855,103.251 c -159.202,0 -288.262,-128.831 -288.262,-287.75 0,-1.378 0.012,-2.757 0.031,-4.131 0.621,-0.007 98.014,-1.145 144.785,-1.366 46.225,-0.218 41.524,36.498 55.037,94.912 13.655,59.022 34.615,135.008 34.615,135.008 0,0 11.105,50.585 23.177,50.401 12.879,-0.195 15.059,-8.887 27.865,-50.401 18.87,-61.172 50.539,-206.781 70.331,-291.88 5.193,-22.332 17.816,-53.922 30.351,-53.699 15.174,0.274 28.196,54.636 42.152,86.415 11.033,25.127 22.533,30.423 42.733,30.61 43.701,0.436 104.154,-0.545 105.401,-0.564 0.026,1.561 0.047,3.128 0.047,4.695 0,158.919 -129.059,287.75 -288.263,287.75"
         style="fill:#000000;fill-opacity:1;fill-rule:evenodd;stroke:none"
         id="path3020"
         inkscape:connector-curvature="0" /></g><g
       id="g3022"
       transform="translate(1006.749,503.87916)"><path
         d="m 0,0 c -25.171,-19.275 -35.167,-27.184 -52.408,-56.441 43.074,-0.653 40.829,-28.012 39.309,-37.178 l -3.48,-18.798 c 9.559,-0.067 18.897,-0.08 27.622,-0.031 0.179,25.307 20.813,44.985 46.208,44.985 25.505,0 46.192,-20.666 46.192,-46.126 0,-25.46 -20.687,-46.125 -46.192,-46.125 -21.063,0 -38.855,14.092 -44.413,33.34 -10.296,0.112 -21.075,0.212 -32.238,0.317 l -16.459,-74.948 c 0,0 41.031,-28.916 64.823,-31.67 3.104,23.406 11.433,41.626 30.353,48.188 51.378,16.523 118.62,41.308 118.62,41.308 0,0 8.38,36.789 -13.981,90.429 C 127.877,-76.148 99.689,-55.976 99.689,-55.976 83.732,-47.252 56.135,-31.568 0,0"
         style="fill:#baadaa;fill-opacity:1;fill-rule:evenodd;stroke:none"
         id="path3024"
         inkscape:connector-curvature="0" /></g></g></svg>