<?xml version="1.0" encoding="UTF-8" standalone="no"?>
<!-- Generator: Adobe Illustrator 16.0.0, SVG Export Plug-In . SVG Version: 6.00 Build 0)  -->

<svg
   xmlns:dc="http://purl.org/dc/elements/1.1/"
   xmlns:cc="http://creativecommons.org/ns#"
   xmlns:rdf="http://www.w3.org/1999/02/22-rdf-syntax-ns#"
   xmlns:svg="http://www.w3.org/2000/svg"
   xmlns="http://www.w3.org/2000/svg"
   xmlns:sodipodi="http://sodipodi.sourceforge.net/DTD/sodipodi-0.dtd"
   xmlns:inkscape="http://www.inkscape.org/namespaces/inkscape"
   version="1.1"
   id="Layer_1"
   x="0px"
   y="0px"
   width="800.54297"
   height="609.20404"
   viewBox="0 0 800.54297 609.20404"
   enable-background="new 0 0 512 512"
   xml:space="preserve"
   inkscape:version="0.91 r13725"
   sodipodi:docname="teacher.svg"><metadata
     id="metadata23"><rdf:RDF><cc:Work
         rdf:about=""><dc:format>image/svg+xml</dc:format><dc:type
           rdf:resource="http://purl.org/dc/dcmitype/StillImage" /><dc:title></dc:title></cc:Work></rdf:RDF></metadata><defs
     id="defs21" /><sodipodi:namedview
     pagecolor="#ffffff"
     bordercolor="#666666"
     borderopacity="1"
     objecttolerance="10"
     gridtolerance="10"
     guidetolerance="10"
     inkscape:pageopacity="0"
     inkscape:pageshadow="2"
     inkscape:window-width="997"
     inkscape:window-height="756"
     id="namedview19"
     showgrid="false"
     inkscape:zoom="0.4609375"
     inkscape:cx="308.06856"
     inkscape:cy="405.27118"
     inkscape:window-x="764"
     inkscape:window-y="261"
     inkscape:window-maximized="0"
     inkscape:current-layer="Layer_1"
     fit-margin-top="0"
     fit-margin-left="0"
     fit-margin-right="0"
     fit-margin-bottom="0" /><path
     inkscape:connector-curvature="0"
     id="path11"
     d="m 515.00478,578.13115 c 0,-96.29499 -39.01875,-180.71286 -97.58792,-227.96128 -25.75293,31.88711 -64.688,52.21161 -108.26204,52.21161 -43.57401,0 -82.51214,-20.3245 -108.26354,-52.21161 -58.56918,47.24842 -97.58945,131.66629 -97.58945,227.96128 0,0 84.42857,31.0729 203.95483,31.0729 119.52628,0 207.74812,-31.0729 207.74812,-31.0729 z"
     style="fill:#000000" /><ellipse
     id="circle13"
     cy="258.67303"
     cx="309.15482"
     style="fill:#000000"
     rx="113.83483"
     ry="116.51985" /><rect
     style="fill:#000000;fill-opacity:1;stroke:none;stroke-width:5.17600012;stroke-miterlimit:4;stroke-dasharray:none;stroke-opacity:1"
     id="rect3334"
     width="216.54469"
     height="53.532211"
     x="549.9187"
     y="1.9196666"
     transform="matrix(0.7678888,0.64058317,-0.64024493,0.76817083,0,0)"
     ry="26.766106" /><rect
     style="fill:#000000;fill-opacity:1;stroke:none;stroke-width:5.17600012;stroke-miterlimit:4;stroke-dasharray:none;stroke-opacity:1"
     id="rect3334-1"
     width="216.54469"
     height="53.532211"
     x="-59.902954"
     y="-756.05682"
     transform="matrix(-0.52707192,0.84982068,-0.85005272,-0.52669762,0,0)"
     ry="26.766106" /><rect
     style="fill:#000000;fill-opacity:1;stroke:none;stroke-width:5.17600012;stroke-miterlimit:4;stroke-dasharray:none;stroke-opacity:1"
     id="rect3351"
     width="199.59322"
     height="13.016949"
     x="-4.0461774"
     y="724.30243"
     ry="6.5084743"
     transform="matrix(0.52421207,-0.85158775,0.85158775,0.52421207,0,0)" /><path
     style="fill:#000000;fill-opacity:1;stroke:none;stroke-width:5.17600012;stroke-miterlimit:4;stroke-dasharray:none;stroke-opacity:1"
     d="m 0,0 0,483.79688 800.54297,0 L 800.54297,0 0,0 Z m 23.865235,19.52539 752.812505,0 0,442.57618 -752.812505,0 0,-442.57618 z"
     id="rect3358"
     inkscape:connector-curvature="0" /></svg>